solid OpenSCAD_Model
  facet normal -1 0 0
    outer loop
      vertex -9.74 31 4.75
      vertex -9.74 31 -4.75
      vertex -9.74 30 4.75
    endloop
  endfacet
  facet normal -1 0 0
    outer loop
      vertex -9.74 30 4.75
      vertex -9.74 31 -4.75
      vertex -9.74 30 -4.75
    endloop
  endfacet
  facet normal 0 -1 0
    outer loop
      vertex -5.74 30 -4.75
      vertex -5.74 30 4.75
      vertex -9.74 30 4.75
    endloop
  endfacet
  facet normal 0 -1 0
    outer loop
      vertex -9.74 30 -4.75
      vertex -5.74 30 -4.75
      vertex -9.74 30 4.75
    endloop
  endfacet
  facet normal 0 0 -1
    outer loop
      vertex -9.74 30 -4.75
      vertex -9.74 31 -4.75
      vertex -5.74 30 -4.75
    endloop
  endfacet
  facet normal 0 0 -1
    outer loop
      vertex -5.74 30 -4.75
      vertex -9.74 31 -4.75
      vertex -7.24 31 -4.75
    endloop
  endfacet
  facet normal 0 0 -1
    outer loop
      vertex -5.74 30 -4.75
      vertex -7.24 31 -4.75
      vertex -7.24 32.5 -4.75
    endloop
  endfacet
  facet normal 0 0 -1
    outer loop
      vertex -7.24 32.5 -4.75
      vertex -8.74 32.5 -4.75
      vertex -8.74 34.5 -4.75
    endloop
  endfacet
  facet normal 0 0 -1
    outer loop
      vertex -7.24 32.5 -4.75
      vertex -8.74 34.5 -4.75
      vertex -7.24 36.5 -4.75
    endloop
  endfacet
  facet normal 0 0 -1
    outer loop
      vertex -7.24 32.5 -4.75
      vertex -7.24 36.5 -4.75
      vertex -5.74 30 -4.75
    endloop
  endfacet
  facet normal 0 0 -1
    outer loop
      vertex -7.24 36.5 -4.75
      vertex -7.24 42 -4.75
      vertex -5.74 30 -4.75
    endloop
  endfacet
  facet normal 0 0 -1
    outer loop
      vertex -7.24 42 -4.75
      vertex -7.14211 42.618 -4.75
      vertex -5.74 30 -4.75
    endloop
  endfacet
  facet normal 0 0 -1
    outer loop
      vertex -5.74 30 -4.75
      vertex -7.14211 42.618 -4.75
      vertex -6.85803 43.1756 -4.75
    endloop
  endfacet
  facet normal 0 0 -1
    outer loop
      vertex -5.74 30 -4.75
      vertex -6.85803 43.1756 -4.75
      vertex -6.41557 43.618 -4.75
    endloop
  endfacet
  facet normal 0 0 -1
    outer loop
      vertex -5.74 30 -4.75
      vertex -6.41557 43.618 -4.75
      vertex -5.85803 43.9021 -4.75
    endloop
  endfacet
  facet normal 0 0 -1
    outer loop
      vertex -5.32778 42.309 -4.75
      vertex -5.85803 43.9021 -4.75
      vertex -5.24 44 -4.75
    endloop
  endfacet
  facet normal 0 0 -1
    outer loop
      vertex -0.870698 42.3749 -4.75
      vertex -5.24 44 -4.75
      vertex 0 44 -4.75
    endloop
  endfacet
  facet normal 0 0 -1
    outer loop
      vertex 2.74891 42.5 -4.75
      vertex 0.01 44 -4.75
      vertex 5.25 44 -4.75
    endloop
  endfacet
  facet normal 0 0 -1
    outer loop
      vertex 5.05902 42.4511 -4.75
      vertex 5.86803 43.9021 -4.75
      vertex 6.42557 43.618 -4.75
    endloop
  endfacet
  facet normal 0 0 -1
    outer loop
      vertex 5.55902 42.0878 -4.75
      vertex 6.42557 43.618 -4.75
      vertex 6.86803 43.1756 -4.75
    endloop
  endfacet
  facet normal 0 0 -1
    outer loop
      vertex 5.75 41.5 -4.75
      vertex 6.86803 43.1756 -4.75
      vertex 7.15211 42.618 -4.75
    endloop
  endfacet
  facet normal 0 0 -1
    outer loop
      vertex 7.25 32.5 -4.75
      vertex 8.75 34.5 -4.75
      vertex 8.75 32.5 -4.75
    endloop
  endfacet
  facet normal 0 0 -1
    outer loop
      vertex 5.75 41.5 -4.75
      vertex 7.25 36.5 -4.75
      vertex 7.25 32.5 -4.75
    endloop
  endfacet
  facet normal 0 0 -1
    outer loop
      vertex 7.25 31 -4.75
      vertex 9.75 31 -4.75
      vertex 5.75 30 -4.75
    endloop
  endfacet
  facet normal 0 0 -1
    outer loop
      vertex 5.75 41.5 -4.75
      vertex 7.25 42 -4.75
      vertex 7.25 36.5 -4.75
    endloop
  endfacet
  facet normal 0 0 -1
    outer loop
      vertex 5.75 30 -4.75
      vertex 9.75 31 -4.75
      vertex 9.75 30 -4.75
    endloop
  endfacet
  facet normal 0 0 -1
    outer loop
      vertex 7.25 36.5 -4.75
      vertex 8.75 34.5 -4.75
      vertex 7.25 32.5 -4.75
    endloop
  endfacet
  facet normal 0 0 -1
    outer loop
      vertex 5.75 31 -4.75
      vertex 7.25 31 -4.75
      vertex 5.75 30 -4.75
    endloop
  endfacet
  facet normal 0 0 -1
    outer loop
      vertex 5.75 41.5 -4.75
      vertex 7.15211 42.618 -4.75
      vertex 7.25 42 -4.75
    endloop
  endfacet
  facet normal 0 0 -1
    outer loop
      vertex 5.70106 41.809 -4.75
      vertex 6.86803 43.1756 -4.75
      vertex 5.75 41.5 -4.75
    endloop
  endfacet
  facet normal 0 0 -1
    outer loop
      vertex 5.55902 42.0878 -4.75
      vertex 6.86803 43.1756 -4.75
      vertex 5.70106 41.809 -4.75
    endloop
  endfacet
  facet normal 0 0 -1
    outer loop
      vertex -4.12781 39 -4.75
      vertex -2.74187 39 -4.75
      vertex -2.74 36.6178 -4.75
    endloop
  endfacet
  facet normal 0 0 -1
    outer loop
      vertex 5.33778 42.309 -4.75
      vertex 6.42557 43.618 -4.75
      vertex 5.55902 42.0878 -4.75
    endloop
  endfacet
  facet normal 0 0 -1
    outer loop
      vertex 5.05902 42.4511 -4.75
      vertex 6.42557 43.618 -4.75
      vertex 5.33778 42.309 -4.75
    endloop
  endfacet
  facet normal 0 0 -1
    outer loop
      vertex 4.75 42.5 -4.75
      vertex 5.86803 43.9021 -4.75
      vertex 5.05902 42.4511 -4.75
    endloop
  endfacet
  facet normal 0 0 -1
    outer loop
      vertex 2.74891 42.5 -4.75
      vertex 5.25 44 -4.75
      vertex 5.86803 43.9021 -4.75
    endloop
  endfacet
  facet normal 0 0 -1
    outer loop
      vertex 1.67519 41.7215 -4.75
      vertex 0.01 44 -4.75
      vertex 2.74891 42.5 -4.75
    endloop
  endfacet
  facet normal 0 0 -1
    outer loop
      vertex 3.43832 41.5267 -4.75
      vertex 2.3057 40.7038 -4.75
      vertex 2.74891 42.5 -4.75
    endloop
  endfacet
  facet normal 0 0 -1
    outer loop
      vertex -4.12781 39 -4.75
      vertex -2.70051 39.4215 -4.75
      vertex -2.74187 39 -4.75
    endloop
  endfacet
  facet normal 0 0 -1
    outer loop
      vertex 2.3057 40.7038 -4.75
      vertex 3.43832 41.5267 -4.75
      vertex 2.71051 39.4215 -4.75
    endloop
  endfacet
  facet normal 0 0 -1
    outer loop
      vertex 4.25 31.9 -4.75
      vertex 4.13781 39 -4.75
      vertex 4.25 39 -4.75
    endloop
  endfacet
  facet normal 0 0 -1
    outer loop
      vertex 1.67519 41.7215 -4.75
      vertex 2.74891 42.5 -4.75
      vertex 2.3057 40.7038 -4.75
    endloop
  endfacet
  facet normal 0 0 -1
    outer loop
      vertex 4.04199 39.8541 -4.75
      vertex 2.71051 39.4215 -4.75
      vertex 3.43832 41.5267 -4.75
    endloop
  endfacet
  facet normal 0 0 -1
    outer loop
      vertex 2.75 36.6178 -4.75
      vertex 4.13781 39 -4.75
      vertex 1.65 34.5 -4.75
    endloop
  endfacet
  facet normal 0 0 -1
    outer loop
      vertex 2.75187 39 -4.75
      vertex 4.13781 39 -4.75
      vertex 2.75 36.6178 -4.75
    endloop
  endfacet
  facet normal 0 0 -1
    outer loop
      vertex -2.74 36.6178 -4.75
      vertex -1.76725 35.3034 -4.75
      vertex -4.24 31.9 -4.75
    endloop
  endfacet
  facet normal 0 0 -1
    outer loop
      vertex 2.75187 39 -4.75
      vertex 4.04199 39.8541 -4.75
      vertex 4.13781 39 -4.75
    endloop
  endfacet
  facet normal 0 0 -1
    outer loop
      vertex 1.77725 35.3034 -4.75
      vertex 2.72176 36.6034 -4.75
      vertex 1.65 34.5 -4.75
    endloop
  endfacet
  facet normal 0 0 -1
    outer loop
      vertex 2.72176 36.6034 -4.75
      vertex 2.75 36.6178 -4.75
      vertex 1.65 34.5 -4.75
    endloop
  endfacet
  facet normal 0 0 -1
    outer loop
      vertex -3.43656 32.0273 -4.75
      vertex -2.13656 32.9718 -4.75
      vertex -2.71176 32.3966 -4.75
    endloop
  endfacet
  facet normal 0 0 -1
    outer loop
      vertex 2.71051 39.4215 -4.75
      vertex 4.04199 39.8541 -4.75
      vertex 2.75187 39 -4.75
    endloop
  endfacet
  facet normal 0 0 -1
    outer loop
      vertex 2.74891 42.5 -4.75
      vertex 5.86803 43.9021 -4.75
      vertex 4.75 42.5 -4.75
    endloop
  endfacet
  facet normal 0 0 -1
    outer loop
      vertex 0.880698 42.3749 -4.75
      vertex 0.01 44 -4.75
      vertex 1.67519 41.7215 -4.75
    endloop
  endfacet
  facet normal 0 0 -1
    outer loop
      vertex -0.870698 42.3749 -4.75
      vertex 0 44 -4.75
      vertex 1.73781e-15 44 -4.75
    endloop
  endfacet
  facet normal 0 0 -1
    outer loop
      vertex 0.391178 42.5 -4.75
      vertex 0.01 44 -4.75
      vertex 0.880698 42.3749 -4.75
    endloop
  endfacet
  facet normal 0 0 -1
    outer loop
      vertex -0.381178 42.5 -4.75
      vertex 0.01 44 -4.75
      vertex 0.391178 42.5 -4.75
    endloop
  endfacet
  facet normal 0 0 -1
    outer loop
      vertex -2.74 36.6178 -4.75
      vertex -2.71176 36.6034 -4.75
      vertex -2.13656 36.0282 -4.75
    endloop
  endfacet
  facet normal 0 0 -1
    outer loop
      vertex -2.73891 42.5 -4.75
      vertex -5.24 44 -4.75
      vertex -0.870698 42.3749 -4.75
    endloop
  endfacet
  facet normal 0 0 -1
    outer loop
      vertex -1.64 34.5 -4.75
      vertex -4.24 31.9 -4.75
      vertex -1.76725 35.3034 -4.75
    endloop
  endfacet
  facet normal 0 0 -1
    outer loop
      vertex -0.870698 42.3749 -4.75
      vertex 1.73781e-15 44 -4.75
      vertex 0.01 44 -4.75
    endloop
  endfacet
  facet normal 0 0 -1
    outer loop
      vertex -4.24 39 -4.75
      vertex -4.12781 39 -4.75
      vertex -2.74 36.6178 -4.75
    endloop
  endfacet
  facet normal 0 0 -1
    outer loop
      vertex -2.13656 32.9718 -4.75
      vertex -3.43656 32.0273 -4.75
      vertex -1.76725 33.6966 -4.75
    endloop
  endfacet
  facet normal 0 0 -1
    outer loop
      vertex -2.74187 39 -4.75
      vertex -2.74 39 -4.75
      vertex -2.74 36.6178 -4.75
    endloop
  endfacet
  facet normal 0 0 -1
    outer loop
      vertex -2.74 36.6178 -4.75
      vertex -2.13656 36.0282 -4.75
      vertex -1.76725 35.3034 -4.75
    endloop
  endfacet
  facet normal 0 0 -1
    outer loop
      vertex -4.24 31.9 -4.75
      vertex -1.76725 33.6966 -4.75
      vertex -3.43656 32.0273 -4.75
    endloop
  endfacet
  facet normal 0 0 -1
    outer loop
      vertex -4.24 31.9 -4.75
      vertex -1.64 34.5 -4.75
      vertex -1.76725 33.6966 -4.75
    endloop
  endfacet
  facet normal 0 0 -1
    outer loop
      vertex -4.12781 39 -4.75
      vertex -2.2957 40.7038 -4.75
      vertex -2.70051 39.4215 -4.75
    endloop
  endfacet
  facet normal 0 0 -1
    outer loop
      vertex -5.32778 42.309 -4.75
      vertex -5.24 44 -4.75
      vertex -5.04902 42.4511 -4.75
    endloop
  endfacet
  facet normal 0 0 -1
    outer loop
      vertex -2.73891 42.5 -4.75
      vertex -2.2957 40.7038 -4.75
      vertex -3.42832 41.5267 -4.75
    endloop
  endfacet
  facet normal 0 0 -1
    outer loop
      vertex -4.03199 39.8541 -4.75
      vertex -2.2957 40.7038 -4.75
      vertex -4.12781 39 -4.75
    endloop
  endfacet
  facet normal 0 0 -1
    outer loop
      vertex -2.73891 42.5 -4.75
      vertex -1.66519 41.7215 -4.75
      vertex -2.2957 40.7038 -4.75
    endloop
  endfacet
  facet normal 0 0 -1
    outer loop
      vertex -5.04902 42.4511 -4.75
      vertex -5.24 44 -4.75
      vertex -4.74 42.5 -4.75
    endloop
  endfacet
  facet normal 0 0 -1
    outer loop
      vertex -4.03199 39.8541 -4.75
      vertex -3.42832 41.5267 -4.75
      vertex -2.2957 40.7038 -4.75
    endloop
  endfacet
  facet normal 0 0 -1
    outer loop
      vertex -4.74 42.5 -4.75
      vertex -5.24 44 -4.75
      vertex -2.73891 42.5 -4.75
    endloop
  endfacet
  facet normal 0 0 -1
    outer loop
      vertex -1.66519 41.7215 -4.75
      vertex -2.73891 42.5 -4.75
      vertex -0.870698 42.3749 -4.75
    endloop
  endfacet
  facet normal 0 0 -1
    outer loop
      vertex -5.54902 42.0878 -4.75
      vertex -5.85803 43.9021 -4.75
      vertex -5.32778 42.309 -4.75
    endloop
  endfacet
  facet normal 0 0 -1
    outer loop
      vertex -5.69106 41.809 -4.75
      vertex -5.85803 43.9021 -4.75
      vertex -5.54902 42.0878 -4.75
    endloop
  endfacet
  facet normal 0 0 -1
    outer loop
      vertex -5.74 41.5 -4.75
      vertex -5.85803 43.9021 -4.75
      vertex -5.69106 41.809 -4.75
    endloop
  endfacet
  facet normal 0 0 -1
    outer loop
      vertex -5.74 30 -4.75
      vertex -5.85803 43.9021 -4.75
      vertex -5.74 31 -4.75
    endloop
  endfacet
  facet normal 0 0 -1
    outer loop
      vertex -5.85803 43.9021 -4.75
      vertex -5.74 41.5 -4.75
      vertex -5.74 31 -4.75
    endloop
  endfacet
  facet normal 0 0 -1
    outer loop
      vertex 5.75 41.5 -4.75
      vertex 7.25 32.5 -4.75
      vertex 7.25 31 -4.75
    endloop
  endfacet
  facet normal 0 0 -1
    outer loop
      vertex 5.75 41.5 -4.75
      vertex 7.25 31 -4.75
      vertex 5.75 31 -4.75
    endloop
  endfacet
  facet normal 0 0 -1
    outer loop
      vertex 4.25 31.9 -4.75
      vertex 3.44656 32.0273 -4.75
      vertex 2.72176 32.3966 -4.75
    endloop
  endfacet
  facet normal 0 0 -1
    outer loop
      vertex 4.25 31.9 -4.75
      vertex 2.72176 32.3966 -4.75
      vertex 2.14656 32.9718 -4.75
    endloop
  endfacet
  facet normal 0 0 -1
    outer loop
      vertex 4.25 31.9 -4.75
      vertex 2.14656 32.9718 -4.75
      vertex 1.77725 33.6966 -4.75
    endloop
  endfacet
  facet normal 0 0 -1
    outer loop
      vertex 2.72176 36.6034 -4.75
      vertex 1.77725 35.3034 -4.75
      vertex 2.14656 36.0282 -4.75
    endloop
  endfacet
  facet normal 0 0 -1
    outer loop
      vertex -4.24 39 -4.75
      vertex -2.74 36.6178 -4.75
      vertex -4.24 31.9 -4.75
    endloop
  endfacet
  facet normal 0 0 -1
    outer loop
      vertex 2.75 39 -4.75
      vertex 2.75187 39 -4.75
      vertex 2.75 36.6178 -4.75
    endloop
  endfacet
  facet normal 0 0 -1
    outer loop
      vertex -0.870698 42.3749 -4.75
      vertex 0.01 44 -4.75
      vertex -0.381178 42.5 -4.75
    endloop
  endfacet
  facet normal 0 0 -1
    outer loop
      vertex 4.25 31.9 -4.75
      vertex 1.65 34.5 -4.75
      vertex 4.13781 39 -4.75
    endloop
  endfacet
  facet normal 0 0 -1
    outer loop
      vertex 4.25 31.9 -4.75
      vertex 1.77725 33.6966 -4.75
      vertex 1.65 34.5 -4.75
    endloop
  endfacet
  facet normal 0 0 1
    outer loop
      vertex -5.74 30 4.75
      vertex -5.74 31 4.75
      vertex -7.24 31 4.75
    endloop
  endfacet
  facet normal 0 0 1
    outer loop
      vertex -9.74 30 4.75
      vertex -5.74 30 4.75
      vertex -9.74 31 4.75
    endloop
  endfacet
  facet normal 0 0 1
    outer loop
      vertex -9.74 31 4.75
      vertex -5.74 30 4.75
      vertex -7.24 31 4.75
    endloop
  endfacet
  facet normal 0 1 0
    outer loop
      vertex -7.24 31 4.75
      vertex -7.24 31 -4.75
      vertex -9.74 31 4.75
    endloop
  endfacet
  facet normal 0 1 0
    outer loop
      vertex -9.74 31 4.75
      vertex -7.24 31 -4.75
      vertex -9.74 31 -4.75
    endloop
  endfacet
  facet normal 1 0 0
    outer loop
      vertex -5.74 31 -4.75
      vertex -5.74 31 4.75
      vertex -5.74 30 4.75
    endloop
  endfacet
  facet normal 1 0 0
    outer loop
      vertex -5.74 30 -4.75
      vertex -5.74 31 -4.75
      vertex -5.74 30 4.75
    endloop
  endfacet
  facet normal 1 0 0
    outer loop
      vertex -5.74 31 4.75
      vertex -5.74 31 -4.75
      vertex -5.74 41.5 -4.75
    endloop
  endfacet
  facet normal 1 0 0
    outer loop
      vertex -5.74 31 4.76
      vertex -5.74 31 4.75
      vertex -5.74 41.5 4.76
    endloop
  endfacet
  facet normal 1 0 0
    outer loop
      vertex -5.74 41.5 4.76
      vertex -5.74 31 4.75
      vertex -5.74 41.5 -4.75
    endloop
  endfacet
  facet normal 0.987689 -0.156433 0
    outer loop
      vertex -5.74 41.5 4.76
      vertex -5.74 41.5 -4.75
      vertex -5.69106 41.809 -4.75
    endloop
  endfacet
  facet normal 0.987689 -0.156433 0
    outer loop
      vertex -5.69106 41.809 4.76
      vertex -5.74 41.5 4.76
      vertex -5.69106 41.809 -4.75
    endloop
  endfacet
  facet normal 0.891006 -0.453992 0
    outer loop
      vertex -5.69106 41.809 4.76
      vertex -5.69106 41.809 -4.75
      vertex -5.54902 42.0878 -4.75
    endloop
  endfacet
  facet normal 0.891006 -0.453992 0
    outer loop
      vertex -5.54902 42.0878 4.76
      vertex -5.69106 41.809 4.76
      vertex -5.54902 42.0878 -4.75
    endloop
  endfacet
  facet normal 0.707107 -0.707107 0
    outer loop
      vertex -5.54902 42.0878 4.76
      vertex -5.54902 42.0878 -4.75
      vertex -5.32778 42.309 -4.75
    endloop
  endfacet
  facet normal 0.707107 -0.707107 0
    outer loop
      vertex -5.32778 42.309 4.76
      vertex -5.54902 42.0878 4.76
      vertex -5.32778 42.309 -4.75
    endloop
  endfacet
  facet normal 0.453992 -0.891006 0
    outer loop
      vertex -5.32778 42.309 4.76
      vertex -5.32778 42.309 -4.75
      vertex -5.04902 42.4511 -4.75
    endloop
  endfacet
  facet normal 0.453992 -0.891006 0
    outer loop
      vertex -5.04902 42.4511 4.76
      vertex -5.32778 42.309 4.76
      vertex -5.04902 42.4511 -4.75
    endloop
  endfacet
  facet normal 0.156433 -0.987689 0
    outer loop
      vertex -5.04902 42.4511 4.76
      vertex -5.04902 42.4511 -4.75
      vertex -4.74 42.5 -4.75
    endloop
  endfacet
  facet normal 0.156433 -0.987689 0
    outer loop
      vertex -4.74 42.5 4.76
      vertex -5.04902 42.4511 4.76
      vertex -4.74 42.5 -4.75
    endloop
  endfacet
  facet normal 0 -1 0
    outer loop
      vertex 4.75 42.5 4.76
      vertex -2.73891 42.5 4.75
      vertex -0.381178 42.5 4.75
    endloop
  endfacet
  facet normal 0 -1 0
    outer loop
      vertex 0.391178 42.5 4.75
      vertex 4.75 42.5 4.76
      vertex -0.381178 42.5 4.75
    endloop
  endfacet
  facet normal 0 -1 0
    outer loop
      vertex -2.73891 42.5 -4.75
      vertex -2.73891 42.5 4.75
      vertex -4.74 42.5 4.76
    endloop
  endfacet
  facet normal 0 -1 0
    outer loop
      vertex -0.381178 42.5 -4.75
      vertex 0.391178 42.5 -4.75
      vertex -0.381178 42.5 4.75
    endloop
  endfacet
  facet normal 0 -1 0
    outer loop
      vertex 0.391178 42.5 -4.75
      vertex 0.391178 42.5 4.75
      vertex -0.381178 42.5 4.75
    endloop
  endfacet
  facet normal 0 -1 0
    outer loop
      vertex 2.74891 42.5 4.75
      vertex 4.75 42.5 4.76
      vertex 0.391178 42.5 4.75
    endloop
  endfacet
  facet normal 0 -1 0
    outer loop
      vertex 2.74891 42.5 -4.75
      vertex 4.75 42.5 -4.75
      vertex 2.74891 42.5 4.75
    endloop
  endfacet
  facet normal 0 -1 0
    outer loop
      vertex 4.75 42.5 -4.75
      vertex 4.75 42.5 4.76
      vertex 2.74891 42.5 4.75
    endloop
  endfacet
  facet normal 0 -1 0
    outer loop
      vertex 4.75 42.5 4.76
      vertex -4.74 42.5 4.76
      vertex -2.73891 42.5 4.75
    endloop
  endfacet
  facet normal 0 -1 0
    outer loop
      vertex -4.74 42.5 4.76
      vertex -4.74 42.5 -4.75
      vertex -2.73891 42.5 -4.75
    endloop
  endfacet
  facet normal -0.816024 0.578017 0
    outer loop
      vertex -2.73891 42.5 4.75
      vertex -2.73891 42.5 -4.75
      vertex -3.42832 41.5267 4.75
    endloop
  endfacet
  facet normal -0.816024 0.578017 0
    outer loop
      vertex -3.42832 41.5267 4.75
      vertex -2.73891 42.5 -4.75
      vertex -3.42832 41.5267 -4.75
    endloop
  endfacet
  facet normal -0.940613 0.33948 0
    outer loop
      vertex -3.42832 41.5267 4.75
      vertex -3.42832 41.5267 -4.75
      vertex -4.03199 39.8541 4.75
    endloop
  endfacet
  facet normal -0.940613 0.33948 0
    outer loop
      vertex -4.03199 39.8541 4.75
      vertex -3.42832 41.5267 -4.75
      vertex -4.03199 39.8541 -4.75
    endloop
  endfacet
  facet normal -0.993766 0.11149 0
    outer loop
      vertex -4.03199 39.8541 4.75
      vertex -4.03199 39.8541 -4.75
      vertex -4.12781 39 4.75
    endloop
  endfacet
  facet normal -0.993766 0.11149 0
    outer loop
      vertex -4.12781 39 4.75
      vertex -4.03199 39.8541 -4.75
      vertex -4.12781 39 -4.75
    endloop
  endfacet
  facet normal 0 1 0
    outer loop
      vertex -4.12781 39 4.75
      vertex -4.12781 39 -4.75
      vertex -4.24 39 4.75
    endloop
  endfacet
  facet normal 0 1 0
    outer loop
      vertex -4.24 39 4.75
      vertex -4.12781 39 -4.75
      vertex -4.24 39 -4.75
    endloop
  endfacet
  facet normal -1 0 0
    outer loop
      vertex -4.24 39 4.75
      vertex -4.24 39 -4.75
      vertex -4.24 31.9 4.75
    endloop
  endfacet
  facet normal -1 0 0
    outer loop
      vertex -4.24 31.9 4.75
      vertex -4.24 39 -4.75
      vertex -4.24 31.9 -4.75
    endloop
  endfacet
  facet normal 0.156434 -0.987688 0
    outer loop
      vertex -3.43656 32.0273 -4.75
      vertex -3.43656 32.0273 4.75
      vertex -4.24 31.9 4.75
    endloop
  endfacet
  facet normal 0.156434 -0.987688 0
    outer loop
      vertex -4.24 31.9 -4.75
      vertex -3.43656 32.0273 -4.75
      vertex -4.24 31.9 4.75
    endloop
  endfacet
  facet normal 0.45399 -0.891007 0
    outer loop
      vertex -2.71176 32.3966 -4.75
      vertex -2.71176 32.3966 4.75
      vertex -3.43656 32.0273 4.75
    endloop
  endfacet
  facet normal 0.45399 -0.891007 0
    outer loop
      vertex -3.43656 32.0273 -4.75
      vertex -2.71176 32.3966 -4.75
      vertex -3.43656 32.0273 4.75
    endloop
  endfacet
  facet normal 0.707107 -0.707107 0
    outer loop
      vertex -2.13656 32.9718 -4.75
      vertex -2.13656 32.9718 4.75
      vertex -2.71176 32.3966 4.75
    endloop
  endfacet
  facet normal 0.707107 -0.707107 0
    outer loop
      vertex -2.71176 32.3966 -4.75
      vertex -2.13656 32.9718 -4.75
      vertex -2.71176 32.3966 4.75
    endloop
  endfacet
  facet normal 0.891007 -0.45399 0
    outer loop
      vertex -1.76725 33.6966 -4.75
      vertex -1.76725 33.6966 4.75
      vertex -2.13656 32.9718 4.75
    endloop
  endfacet
  facet normal 0.891007 -0.45399 0
    outer loop
      vertex -2.13656 32.9718 -4.75
      vertex -1.76725 33.6966 -4.75
      vertex -2.13656 32.9718 4.75
    endloop
  endfacet
  facet normal 0.987688 -0.156434 0
    outer loop
      vertex -1.64 34.5 -4.75
      vertex -1.64 34.5 4.75
      vertex -1.76725 33.6966 4.75
    endloop
  endfacet
  facet normal 0.987688 -0.156434 0
    outer loop
      vertex -1.76725 33.6966 -4.75
      vertex -1.64 34.5 -4.75
      vertex -1.76725 33.6966 4.75
    endloop
  endfacet
  facet normal 0.987688 0.156434 0
    outer loop
      vertex -1.76725 35.3034 4.75
      vertex -1.64 34.5 4.75
      vertex -1.64 34.5 -4.75
    endloop
  endfacet
  facet normal 0.987688 0.156434 0
    outer loop
      vertex -1.76725 35.3034 -4.75
      vertex -1.76725 35.3034 4.75
      vertex -1.64 34.5 -4.75
    endloop
  endfacet
  facet normal 0.891007 0.45399 0
    outer loop
      vertex -2.13656 36.0282 4.75
      vertex -1.76725 35.3034 4.75
      vertex -1.76725 35.3034 -4.75
    endloop
  endfacet
  facet normal 0.891007 0.45399 0
    outer loop
      vertex -2.13656 36.0282 -4.75
      vertex -2.13656 36.0282 4.75
      vertex -1.76725 35.3034 -4.75
    endloop
  endfacet
  facet normal 0.707107 0.707107 0
    outer loop
      vertex -2.13656 36.0282 4.75
      vertex -2.13656 36.0282 -4.75
      vertex -2.71176 36.6034 4.75
    endloop
  endfacet
  facet normal 0.707107 0.707107 0
    outer loop
      vertex -2.71176 36.6034 4.75
      vertex -2.13656 36.0282 -4.75
      vertex -2.71176 36.6034 -4.75
    endloop
  endfacet
  facet normal 0.45399 0.891007 0
    outer loop
      vertex -2.71176 36.6034 4.75
      vertex -2.71176 36.6034 -4.75
      vertex -2.74 36.6178 4.75
    endloop
  endfacet
  facet normal 0.45399 0.891007 0
    outer loop
      vertex -2.74 36.6178 4.75
      vertex -2.71176 36.6034 -4.75
      vertex -2.74 36.6178 -4.75
    endloop
  endfacet
  facet normal 1 0 0
    outer loop
      vertex -2.74 39 -4.75
      vertex -2.74 39 4.75
      vertex -2.74 36.6178 4.75
    endloop
  endfacet
  facet normal 1 0 0
    outer loop
      vertex -2.74 36.6178 -4.75
      vertex -2.74 39 -4.75
      vertex -2.74 36.6178 4.75
    endloop
  endfacet
  facet normal 0 1 0
    outer loop
      vertex -2.74 39 4.75
      vertex -2.74 39 -4.75
      vertex -2.74187 39 4.75
    endloop
  endfacet
  facet normal 0 1 0
    outer loop
      vertex -2.74187 39 4.75
      vertex -2.74 39 -4.75
      vertex -2.74187 39 -4.75
    endloop
  endfacet
  facet normal 0.99522 -0.0976605 0
    outer loop
      vertex -2.74187 39 4.75
      vertex -2.74187 39 -4.75
      vertex -2.70051 39.4215 -4.75
    endloop
  endfacet
  facet normal 0.99522 -0.0976605 0
    outer loop
      vertex -2.70051 39.4215 4.75
      vertex -2.74187 39 4.75
      vertex -2.70051 39.4215 -4.75
    endloop
  endfacet
  facet normal 0.953611 -0.30104 0
    outer loop
      vertex -2.70051 39.4215 4.75
      vertex -2.70051 39.4215 -4.75
      vertex -2.2957 40.7038 -4.75
    endloop
  endfacet
  facet normal 0.953611 -0.30104 0
    outer loop
      vertex -2.2957 40.7038 4.75
      vertex -2.70051 39.4215 4.75
      vertex -2.2957 40.7038 -4.75
    endloop
  endfacet
  facet normal 0.850068 -0.526673 0
    outer loop
      vertex -2.2957 40.7038 4.75
      vertex -2.2957 40.7038 -4.75
      vertex -1.66519 41.7215 -4.75
    endloop
  endfacet
  facet normal 0.850068 -0.526673 0
    outer loop
      vertex -1.66519 41.7215 4.75
      vertex -2.2957 40.7038 4.75
      vertex -1.66519 41.7215 -4.75
    endloop
  endfacet
  facet normal 0.635184 -0.772361 0
    outer loop
      vertex -1.66519 41.7215 4.75
      vertex -1.66519 41.7215 -4.75
      vertex -0.870698 42.3749 -4.75
    endloop
  endfacet
  facet normal 0.635184 -0.772361 0
    outer loop
      vertex -0.870698 42.3749 4.75
      vertex -1.66519 41.7215 4.75
      vertex -0.870698 42.3749 -4.75
    endloop
  endfacet
  facet normal 0.247674 -0.968844 0
    outer loop
      vertex -0.870698 42.3749 4.75
      vertex -0.870698 42.3749 -4.75
      vertex -0.381178 42.5 -4.75
    endloop
  endfacet
  facet normal 0.247674 -0.968844 0
    outer loop
      vertex -0.381178 42.5 4.75
      vertex -0.870698 42.3749 4.75
      vertex -0.381178 42.5 -4.75
    endloop
  endfacet
  facet normal -0.247674 -0.968844 0
    outer loop
      vertex 0.880698 42.3749 -4.75
      vertex 0.880698 42.3749 4.75
      vertex 0.391178 42.5 4.75
    endloop
  endfacet
  facet normal -0.247674 -0.968844 0
    outer loop
      vertex 0.391178 42.5 -4.75
      vertex 0.880698 42.3749 -4.75
      vertex 0.391178 42.5 4.75
    endloop
  endfacet
  facet normal -0.635184 -0.772361 0
    outer loop
      vertex 1.67519 41.7215 -4.75
      vertex 1.67519 41.7215 4.75
      vertex 0.880698 42.3749 4.75
    endloop
  endfacet
  facet normal -0.635184 -0.772361 0
    outer loop
      vertex 0.880698 42.3749 -4.75
      vertex 1.67519 41.7215 -4.75
      vertex 0.880698 42.3749 4.75
    endloop
  endfacet
  facet normal -0.850068 -0.526673 0
    outer loop
      vertex 2.3057 40.7038 4.75
      vertex 1.67519 41.7215 4.75
      vertex 2.3057 40.7038 -4.75
    endloop
  endfacet
  facet normal -0.850068 -0.526673 0
    outer loop
      vertex 2.3057 40.7038 -4.75
      vertex 1.67519 41.7215 4.75
      vertex 1.67519 41.7215 -4.75
    endloop
  endfacet
  facet normal -0.953611 -0.30104 0
    outer loop
      vertex 2.71051 39.4215 4.75
      vertex 2.3057 40.7038 4.75
      vertex 2.71051 39.4215 -4.75
    endloop
  endfacet
  facet normal -0.953611 -0.30104 0
    outer loop
      vertex 2.71051 39.4215 -4.75
      vertex 2.3057 40.7038 4.75
      vertex 2.3057 40.7038 -4.75
    endloop
  endfacet
  facet normal -0.99522 -0.0976605 0
    outer loop
      vertex 2.75187 39 4.75
      vertex 2.71051 39.4215 4.75
      vertex 2.75187 39 -4.75
    endloop
  endfacet
  facet normal -0.99522 -0.0976605 0
    outer loop
      vertex 2.75187 39 -4.75
      vertex 2.71051 39.4215 4.75
      vertex 2.71051 39.4215 -4.75
    endloop
  endfacet
  facet normal 0 1 0
    outer loop
      vertex 2.75 39 -4.75
      vertex 2.75 39 4.75
      vertex 2.75187 39 -4.75
    endloop
  endfacet
  facet normal 0 1 0
    outer loop
      vertex 2.75187 39 -4.75
      vertex 2.75 39 4.75
      vertex 2.75187 39 4.75
    endloop
  endfacet
  facet normal -1 0 0
    outer loop
      vertex 2.75 36.6178 -4.75
      vertex 2.75 36.6178 4.75
      vertex 2.75 39 -4.75
    endloop
  endfacet
  facet normal -1 0 0
    outer loop
      vertex 2.75 39 -4.75
      vertex 2.75 36.6178 4.75
      vertex 2.75 39 4.75
    endloop
  endfacet
  facet normal -0.45399 0.891007 0
    outer loop
      vertex 2.72176 36.6034 -4.75
      vertex 2.72176 36.6034 4.75
      vertex 2.75 36.6178 -4.75
    endloop
  endfacet
  facet normal -0.45399 0.891007 0
    outer loop
      vertex 2.75 36.6178 -4.75
      vertex 2.72176 36.6034 4.75
      vertex 2.75 36.6178 4.75
    endloop
  endfacet
  facet normal -0.707107 0.707107 0
    outer loop
      vertex 2.14656 36.0282 -4.75
      vertex 2.14656 36.0282 4.75
      vertex 2.72176 36.6034 -4.75
    endloop
  endfacet
  facet normal -0.707107 0.707107 0
    outer loop
      vertex 2.72176 36.6034 -4.75
      vertex 2.14656 36.0282 4.75
      vertex 2.72176 36.6034 4.75
    endloop
  endfacet
  facet normal -0.891007 0.45399 0
    outer loop
      vertex 1.77725 35.3034 -4.75
      vertex 1.77725 35.3034 4.75
      vertex 2.14656 36.0282 -4.75
    endloop
  endfacet
  facet normal -0.891007 0.45399 0
    outer loop
      vertex 2.14656 36.0282 -4.75
      vertex 1.77725 35.3034 4.75
      vertex 2.14656 36.0282 4.75
    endloop
  endfacet
  facet normal -0.987688 0.156434 0
    outer loop
      vertex 1.65 34.5 -4.75
      vertex 1.65 34.5 4.75
      vertex 1.77725 35.3034 -4.75
    endloop
  endfacet
  facet normal -0.987688 0.156434 0
    outer loop
      vertex 1.77725 35.3034 -4.75
      vertex 1.65 34.5 4.75
      vertex 1.77725 35.3034 4.75
    endloop
  endfacet
  facet normal -0.987688 -0.156434 0
    outer loop
      vertex 1.65 34.5 -4.75
      vertex 1.77725 33.6966 -4.75
      vertex 1.65 34.5 4.75
    endloop
  endfacet
  facet normal -0.987688 -0.156434 0
    outer loop
      vertex 1.65 34.5 4.75
      vertex 1.77725 33.6966 -4.75
      vertex 1.77725 33.6966 4.75
    endloop
  endfacet
  facet normal -0.891007 -0.45399 0
    outer loop
      vertex 1.77725 33.6966 -4.75
      vertex 2.14656 32.9718 -4.75
      vertex 1.77725 33.6966 4.75
    endloop
  endfacet
  facet normal -0.891007 -0.45399 0
    outer loop
      vertex 1.77725 33.6966 4.75
      vertex 2.14656 32.9718 -4.75
      vertex 2.14656 32.9718 4.75
    endloop
  endfacet
  facet normal -0.707107 -0.707107 0
    outer loop
      vertex 2.14656 32.9718 4.75
      vertex 2.14656 32.9718 -4.75
      vertex 2.72176 32.3966 -4.75
    endloop
  endfacet
  facet normal -0.707107 -0.707107 0
    outer loop
      vertex 2.72176 32.3966 4.75
      vertex 2.14656 32.9718 4.75
      vertex 2.72176 32.3966 -4.75
    endloop
  endfacet
  facet normal -0.45399 -0.891007 0
    outer loop
      vertex 2.72176 32.3966 4.75
      vertex 2.72176 32.3966 -4.75
      vertex 3.44656 32.0273 -4.75
    endloop
  endfacet
  facet normal -0.45399 -0.891007 0
    outer loop
      vertex 3.44656 32.0273 4.75
      vertex 2.72176 32.3966 4.75
      vertex 3.44656 32.0273 -4.75
    endloop
  endfacet
  facet normal -0.156434 -0.987688 0
    outer loop
      vertex 3.44656 32.0273 4.75
      vertex 3.44656 32.0273 -4.75
      vertex 4.25 31.9 -4.75
    endloop
  endfacet
  facet normal -0.156434 -0.987688 0
    outer loop
      vertex 4.25 31.9 4.75
      vertex 3.44656 32.0273 4.75
      vertex 4.25 31.9 -4.75
    endloop
  endfacet
  facet normal 1 0 0
    outer loop
      vertex 4.25 31.9 4.75
      vertex 4.25 31.9 -4.75
      vertex 4.25 39 -4.75
    endloop
  endfacet
  facet normal 1 0 0
    outer loop
      vertex 4.25 39 4.75
      vertex 4.25 31.9 4.75
      vertex 4.25 39 -4.75
    endloop
  endfacet
  facet normal 0 1 0
    outer loop
      vertex 4.13781 39 -4.75
      vertex 4.13781 39 4.75
      vertex 4.25 39 -4.75
    endloop
  endfacet
  facet normal 0 1 0
    outer loop
      vertex 4.25 39 -4.75
      vertex 4.13781 39 4.75
      vertex 4.25 39 4.75
    endloop
  endfacet
  facet normal 0.993766 0.11149 0
    outer loop
      vertex 4.13781 39 -4.75
      vertex 4.04199 39.8541 -4.75
      vertex 4.04199 39.8541 4.75
    endloop
  endfacet
  facet normal 0.993766 0.11149 0
    outer loop
      vertex 4.13781 39 4.75
      vertex 4.13781 39 -4.75
      vertex 4.04199 39.8541 4.75
    endloop
  endfacet
  facet normal 0.940613 0.33948 0
    outer loop
      vertex 4.04199 39.8541 -4.75
      vertex 3.43832 41.5267 -4.75
      vertex 3.43832 41.5267 4.75
    endloop
  endfacet
  facet normal 0.940613 0.33948 0
    outer loop
      vertex 4.04199 39.8541 4.75
      vertex 4.04199 39.8541 -4.75
      vertex 3.43832 41.5267 4.75
    endloop
  endfacet
  facet normal 0.816024 0.578017 0
    outer loop
      vertex 3.43832 41.5267 -4.75
      vertex 2.74891 42.5 -4.75
      vertex 2.74891 42.5 4.75
    endloop
  endfacet
  facet normal 0.816024 0.578017 0
    outer loop
      vertex 3.43832 41.5267 4.75
      vertex 3.43832 41.5267 -4.75
      vertex 2.74891 42.5 4.75
    endloop
  endfacet
  facet normal -0.156433 -0.987689 0
    outer loop
      vertex 5.05902 42.4511 -4.75
      vertex 5.05902 42.4511 4.76
      vertex 4.75 42.5 4.76
    endloop
  endfacet
  facet normal -0.156433 -0.987689 0
    outer loop
      vertex 4.75 42.5 -4.75
      vertex 5.05902 42.4511 -4.75
      vertex 4.75 42.5 4.76
    endloop
  endfacet
  facet normal -0.453992 -0.891006 0
    outer loop
      vertex 5.33778 42.309 -4.75
      vertex 5.33778 42.309 4.76
      vertex 5.05902 42.4511 4.76
    endloop
  endfacet
  facet normal -0.453992 -0.891006 0
    outer loop
      vertex 5.05902 42.4511 -4.75
      vertex 5.33778 42.309 -4.75
      vertex 5.05902 42.4511 4.76
    endloop
  endfacet
  facet normal -0.707107 -0.707107 0
    outer loop
      vertex 5.55902 42.0878 -4.75
      vertex 5.55902 42.0878 4.76
      vertex 5.33778 42.309 4.76
    endloop
  endfacet
  facet normal -0.707107 -0.707107 0
    outer loop
      vertex 5.33778 42.309 -4.75
      vertex 5.55902 42.0878 -4.75
      vertex 5.33778 42.309 4.76
    endloop
  endfacet
  facet normal -0.891006 -0.453992 0
    outer loop
      vertex 5.70106 41.809 4.76
      vertex 5.55902 42.0878 4.76
      vertex 5.70106 41.809 -4.75
    endloop
  endfacet
  facet normal -0.891006 -0.453992 0
    outer loop
      vertex 5.70106 41.809 -4.75
      vertex 5.55902 42.0878 4.76
      vertex 5.55902 42.0878 -4.75
    endloop
  endfacet
  facet normal -0.987689 -0.156433 0
    outer loop
      vertex 5.75 41.5 4.76
      vertex 5.70106 41.809 4.76
      vertex 5.75 41.5 -4.75
    endloop
  endfacet
  facet normal -0.987689 -0.156433 0
    outer loop
      vertex 5.75 41.5 -4.75
      vertex 5.70106 41.809 4.76
      vertex 5.70106 41.809 -4.75
    endloop
  endfacet
  facet normal -1 0 0
    outer loop
      vertex 5.75 31 4.76
      vertex 5.75 41.5 4.76
      vertex 5.75 31 4.75
    endloop
  endfacet
  facet normal -1 0 0
    outer loop
      vertex 5.75 31 4.75
      vertex 5.75 41.5 4.76
      vertex 5.75 41.5 -4.75
    endloop
  endfacet
  facet normal -1 0 0
    outer loop
      vertex 5.75 31 4.75
      vertex 5.75 41.5 -4.75
      vertex 5.75 31 -4.75
    endloop
  endfacet
  facet normal -1 0 0
    outer loop
      vertex 5.75 30 -4.75
      vertex 5.75 30 4.75
      vertex 5.75 31 -4.75
    endloop
  endfacet
  facet normal -1 0 0
    outer loop
      vertex 5.75 31 -4.75
      vertex 5.75 30 4.75
      vertex 5.75 31 4.75
    endloop
  endfacet
  facet normal 0 -1 0
    outer loop
      vertex 5.75 30 4.75
      vertex 5.75 30 -4.75
      vertex 9.75 30 -4.75
    endloop
  endfacet
  facet normal 0 -1 0
    outer loop
      vertex 9.75 30 4.75
      vertex 5.75 30 4.75
      vertex 9.75 30 -4.75
    endloop
  endfacet
  facet normal 1 0 0
    outer loop
      vertex 9.75 30 4.75
      vertex 9.75 30 -4.75
      vertex 9.75 31 -4.75
    endloop
  endfacet
  facet normal 1 0 0
    outer loop
      vertex 9.75 31 4.75
      vertex 9.75 30 4.75
      vertex 9.75 31 -4.75
    endloop
  endfacet
  facet normal 0 1 0
    outer loop
      vertex 7.25 31 -4.75
      vertex 7.25 31 4.75
      vertex 9.75 31 -4.75
    endloop
  endfacet
  facet normal 0 1 0
    outer loop
      vertex 9.75 31 -4.75
      vertex 7.25 31 4.75
      vertex 9.75 31 4.75
    endloop
  endfacet
  facet normal 1 0 0
    outer loop
      vertex 7.25 42 4.76
      vertex 7.25 32.5 4.75
      vertex 7.25 36.5 4.75
    endloop
  endfacet
  facet normal 1 0 0
    outer loop
      vertex 7.25 32.5 -4.75
      vertex 7.25 32.5 4.75
      vertex 7.25 31 4.76
    endloop
  endfacet
  facet normal 1 0 0
    outer loop
      vertex 7.25 36.5 -4.75
      vertex 7.25 42 -4.75
      vertex 7.25 36.5 4.75
    endloop
  endfacet
  facet normal 1 0 0
    outer loop
      vertex 7.25 42 -4.75
      vertex 7.25 42 4.76
      vertex 7.25 36.5 4.75
    endloop
  endfacet
  facet normal 1 0 0
    outer loop
      vertex 7.25 42 4.76
      vertex 7.25 31 4.76
      vertex 7.25 32.5 4.75
    endloop
  endfacet
  facet normal 1 0 0
    outer loop
      vertex 7.25 31 4.76
      vertex 7.25 31 4.75
      vertex 7.25 32.5 -4.75
    endloop
  endfacet
  facet normal 1 0 0
    outer loop
      vertex 7.25 31 4.75
      vertex 7.25 31 -4.75
      vertex 7.25 32.5 -4.75
    endloop
  endfacet
  facet normal 0 -1 0
    outer loop
      vertex 7.25 32.5 4.75
      vertex 7.25 32.5 -4.75
      vertex 8.75 32.5 -4.75
    endloop
  endfacet
  facet normal 0 -1 0
    outer loop
      vertex 8.75 32.5 4.75
      vertex 7.25 32.5 4.75
      vertex 8.75 32.5 -4.75
    endloop
  endfacet
  facet normal 1 0 0
    outer loop
      vertex 8.75 32.5 4.75
      vertex 8.75 32.5 -4.75
      vertex 8.75 34.5 -4.75
    endloop
  endfacet
  facet normal 1 0 0
    outer loop
      vertex 8.75 34.5 4.75
      vertex 8.75 32.5 4.75
      vertex 8.75 34.5 -4.75
    endloop
  endfacet
  facet normal 0.8 0.6 0
    outer loop
      vertex 8.75 34.5 -4.75
      vertex 7.25 36.5 -4.75
      vertex 7.25 36.5 4.75
    endloop
  endfacet
  facet normal 0.8 0.6 0
    outer loop
      vertex 8.75 34.5 4.75
      vertex 8.75 34.5 -4.75
      vertex 7.25 36.5 4.75
    endloop
  endfacet
  facet normal 0.987688 0.156435 0
    outer loop
      vertex 7.25 42 -4.75
      vertex 7.15211 42.618 -4.75
      vertex 7.15211 42.618 4.76
    endloop
  endfacet
  facet normal 0.987688 0.156435 0
    outer loop
      vertex 7.25 42 4.76
      vertex 7.25 42 -4.75
      vertex 7.15211 42.618 4.76
    endloop
  endfacet
  facet normal 0.891007 0.45399 0
    outer loop
      vertex 7.15211 42.618 -4.75
      vertex 6.86803 43.1756 -4.75
      vertex 6.86803 43.1756 4.76
    endloop
  endfacet
  facet normal 0.891007 0.45399 0
    outer loop
      vertex 7.15211 42.618 4.76
      vertex 7.15211 42.618 -4.75
      vertex 6.86803 43.1756 4.76
    endloop
  endfacet
  facet normal 0.707107 0.707107 0
    outer loop
      vertex 6.42557 43.618 -4.75
      vertex 6.42557 43.618 4.76
      vertex 6.86803 43.1756 -4.75
    endloop
  endfacet
  facet normal 0.707107 0.707107 0
    outer loop
      vertex 6.86803 43.1756 -4.75
      vertex 6.42557 43.618 4.76
      vertex 6.86803 43.1756 4.76
    endloop
  endfacet
  facet normal 0.45399 0.891007 0
    outer loop
      vertex 5.86803 43.9021 -4.75
      vertex 5.86803 43.9021 4.76
      vertex 6.42557 43.618 -4.75
    endloop
  endfacet
  facet normal 0.45399 0.891007 0
    outer loop
      vertex 6.42557 43.618 -4.75
      vertex 5.86803 43.9021 4.76
      vertex 6.42557 43.618 4.76
    endloop
  endfacet
  facet normal 0.156435 0.987688 0
    outer loop
      vertex 5.25 44 -4.75
      vertex 5.25 44 4.76
      vertex 5.86803 43.9021 -4.75
    endloop
  endfacet
  facet normal 0.156435 0.987688 0
    outer loop
      vertex 5.86803 43.9021 -4.75
      vertex 5.25 44 4.76
      vertex 5.86803 43.9021 4.76
    endloop
  endfacet
  facet normal 0 1 0
    outer loop
      vertex -5.24 44 -4.75
      vertex -5.24 44 4.76
      vertex 0 44 -4.75
    endloop
  endfacet
  facet normal 0 1 0
    outer loop
      vertex 0.01 44 4.75
      vertex -5.24 44 4.76
      vertex 5.25 44 4.76
    endloop
  endfacet
  facet normal 0 1 0
    outer loop
      vertex 0.01 44 -4.75
      vertex 5.25 44 4.76
      vertex 5.25 44 -4.75
    endloop
  endfacet
  facet normal 0 1 0
    outer loop
      vertex 1.73781e-15 44 4.75
      vertex -5.24 44 4.76
      vertex 0.01 44 4.75
    endloop
  endfacet
  facet normal 0 1 0
    outer loop
      vertex 0.01 44 -4.75
      vertex 1.73781e-15 44 -4.75
      vertex 0.01 44 4.75
    endloop
  endfacet
  facet normal 0 1 0
    outer loop
      vertex 0 44 4.75
      vertex -5.24 44 4.76
      vertex 1.73781e-15 44 4.75
    endloop
  endfacet
  facet normal 0 1 0
    outer loop
      vertex 0 44 -4.75
      vertex -5.24 44 4.76
      vertex 0 44 4.75
    endloop
  endfacet
  facet normal 0 1 0
    outer loop
      vertex 0.01 44 4.75
      vertex 5.25 44 4.76
      vertex 0.01 44 -4.75
    endloop
  endfacet
  facet normal 0 1 0
    outer loop
      vertex 1.73781e-15 44 4.75
      vertex 0.01 44 4.75
      vertex 1.73781e-15 44 -4.75
    endloop
  endfacet
  facet normal 0.218213 0.975901 0
    outer loop
      vertex 0 44 -4.75
      vertex 0 44 4.75
      vertex 1.73781e-15 44 -4.75
    endloop
  endfacet
  facet normal 0.218213 0.975901 0
    outer loop
      vertex 1.73781e-15 44 -4.75
      vertex 0 44 4.75
      vertex 1.73781e-15 44 4.75
    endloop
  endfacet
  facet normal -0.156435 0.987688 0
    outer loop
      vertex -5.24 44 4.76
      vertex -5.24 44 -4.75
      vertex -5.85803 43.9021 4.76
    endloop
  endfacet
  facet normal -0.156435 0.987688 0
    outer loop
      vertex -5.85803 43.9021 4.76
      vertex -5.24 44 -4.75
      vertex -5.85803 43.9021 -4.75
    endloop
  endfacet
  facet normal -0.45399 0.891007 0
    outer loop
      vertex -5.85803 43.9021 4.76
      vertex -5.85803 43.9021 -4.75
      vertex -6.41557 43.618 4.76
    endloop
  endfacet
  facet normal -0.45399 0.891007 0
    outer loop
      vertex -6.41557 43.618 4.76
      vertex -5.85803 43.9021 -4.75
      vertex -6.41557 43.618 -4.75
    endloop
  endfacet
  facet normal -0.707107 0.707107 0
    outer loop
      vertex -6.41557 43.618 4.76
      vertex -6.41557 43.618 -4.75
      vertex -6.85803 43.1756 4.76
    endloop
  endfacet
  facet normal -0.707107 0.707107 0
    outer loop
      vertex -6.85803 43.1756 4.76
      vertex -6.41557 43.618 -4.75
      vertex -6.85803 43.1756 -4.75
    endloop
  endfacet
  facet normal -0.891007 0.45399 0
    outer loop
      vertex -6.85803 43.1756 4.76
      vertex -6.85803 43.1756 -4.75
      vertex -7.14211 42.618 4.76
    endloop
  endfacet
  facet normal -0.891007 0.45399 0
    outer loop
      vertex -7.14211 42.618 4.76
      vertex -6.85803 43.1756 -4.75
      vertex -7.14211 42.618 -4.75
    endloop
  endfacet
  facet normal -0.987688 0.156435 0
    outer loop
      vertex -7.14211 42.618 4.76
      vertex -7.14211 42.618 -4.75
      vertex -7.24 42 4.76
    endloop
  endfacet
  facet normal -0.987688 0.156435 0
    outer loop
      vertex -7.24 42 4.76
      vertex -7.14211 42.618 -4.75
      vertex -7.24 42 -4.75
    endloop
  endfacet
  facet normal -1 0 0
    outer loop
      vertex -7.24 31 -4.75
      vertex -7.24 31 4.75
      vertex -7.24 32.5 -4.75
    endloop
  endfacet
  facet normal -1 0 0
    outer loop
      vertex -7.24 32.5 -4.75
      vertex -7.24 31 4.75
      vertex -7.24 31 4.76
    endloop
  endfacet
  facet normal -1 0 0
    outer loop
      vertex -7.24 36.5 4.75
      vertex -7.24 31 4.76
      vertex -7.24 42 4.76
    endloop
  endfacet
  facet normal -1 0 0
    outer loop
      vertex -7.24 36.5 -4.75
      vertex -7.24 42 4.76
      vertex -7.24 42 -4.75
    endloop
  endfacet
  facet normal -1 0 0
    outer loop
      vertex -7.24 32.5 4.75
      vertex -7.24 31 4.76
      vertex -7.24 36.5 4.75
    endloop
  endfacet
  facet normal -1 0 0
    outer loop
      vertex -7.24 32.5 -4.75
      vertex -7.24 31 4.76
      vertex -7.24 32.5 4.75
    endloop
  endfacet
  facet normal -1 0 0
    outer loop
      vertex -7.24 36.5 4.75
      vertex -7.24 42 4.76
      vertex -7.24 36.5 -4.75
    endloop
  endfacet
  facet normal -0.8 0.6 0
    outer loop
      vertex -7.24 36.5 4.75
      vertex -7.24 36.5 -4.75
      vertex -8.74 34.5 4.75
    endloop
  endfacet
  facet normal -0.8 0.6 0
    outer loop
      vertex -8.74 34.5 4.75
      vertex -7.24 36.5 -4.75
      vertex -8.74 34.5 -4.75
    endloop
  endfacet
  facet normal -1 0 0
    outer loop
      vertex -8.74 34.5 4.75
      vertex -8.74 34.5 -4.75
      vertex -8.74 32.5 4.75
    endloop
  endfacet
  facet normal -1 0 0
    outer loop
      vertex -8.74 32.5 4.75
      vertex -8.74 34.5 -4.75
      vertex -8.74 32.5 -4.75
    endloop
  endfacet
  facet normal 0 -1 0
    outer loop
      vertex -7.24 32.5 -4.75
      vertex -7.24 32.5 4.75
      vertex -8.74 32.5 4.75
    endloop
  endfacet
  facet normal 0 -1 0
    outer loop
      vertex -8.74 32.5 -4.75
      vertex -7.24 32.5 -4.75
      vertex -8.74 32.5 4.75
    endloop
  endfacet
  facet normal 0 -1 0
    outer loop
      vertex -7.24 31 4.76
      vertex -7.24 31 4.75
      vertex -5.74 31 4.75
    endloop
  endfacet
  facet normal 0 -1 0
    outer loop
      vertex -5.74 31 4.76
      vertex -7.24 31 4.76
      vertex -5.74 31 4.75
    endloop
  endfacet
  facet normal 0 0 1
    outer loop
      vertex -7.24 42 4.76
      vertex -7.24 31 4.76
      vertex -5.74 31 4.76
    endloop
  endfacet
  facet normal 0 0 1
    outer loop
      vertex -5.69106 41.809 4.76
      vertex -7.24 42 4.76
      vertex -5.74 41.5 4.76
    endloop
  endfacet
  facet normal 0 0 1
    outer loop
      vertex -5.74 41.5 4.76
      vertex -7.24 42 4.76
      vertex -5.74 31 4.76
    endloop
  endfacet
  facet normal 0 0 1
    outer loop
      vertex -5.54902 42.0878 4.76
      vertex -7.24 42 4.76
      vertex -5.69106 41.809 4.76
    endloop
  endfacet
  facet normal 0 0 1
    outer loop
      vertex -5.32778 42.309 4.76
      vertex -7.24 42 4.76
      vertex -5.54902 42.0878 4.76
    endloop
  endfacet
  facet normal 0 0 1
    outer loop
      vertex -5.04902 42.4511 4.76
      vertex -7.24 42 4.76
      vertex -5.32778 42.309 4.76
    endloop
  endfacet
  facet normal 0 0 1
    outer loop
      vertex -5.24 44 4.76
      vertex -7.24 42 4.76
      vertex -5.04902 42.4511 4.76
    endloop
  endfacet
  facet normal 0 0 1
    outer loop
      vertex -5.24 44 4.76
      vertex -5.04902 42.4511 4.76
      vertex -4.74 42.5 4.76
    endloop
  endfacet
  facet normal 0 0 1
    outer loop
      vertex 7.15211 42.618 4.76
      vertex -4.74 42.5 4.76
      vertex 4.75 42.5 4.76
    endloop
  endfacet
  facet normal 0 0 1
    outer loop
      vertex 7.15211 42.618 4.76
      vertex 4.75 42.5 4.76
      vertex 5.05902 42.4511 4.76
    endloop
  endfacet
  facet normal 0 0 1
    outer loop
      vertex 7.25 42 4.76
      vertex 5.05902 42.4511 4.76
      vertex 5.33778 42.309 4.76
    endloop
  endfacet
  facet normal 0 0 1
    outer loop
      vertex 7.25 42 4.76
      vertex 5.33778 42.309 4.76
      vertex 5.55902 42.0878 4.76
    endloop
  endfacet
  facet normal 0 0 1
    outer loop
      vertex 7.25 42 4.76
      vertex 5.55902 42.0878 4.76
      vertex 5.70106 41.809 4.76
    endloop
  endfacet
  facet normal 0 0 1
    outer loop
      vertex 7.25 42 4.76
      vertex 5.70106 41.809 4.76
      vertex 5.75 41.5 4.76
    endloop
  endfacet
  facet normal 0 0 1
    outer loop
      vertex 7.25 31 4.76
      vertex 5.75 41.5 4.76
      vertex 5.75 31 4.76
    endloop
  endfacet
  facet normal 0 0 1
    outer loop
      vertex 7.25 42 4.76
      vertex 5.75 41.5 4.76
      vertex 7.25 31 4.76
    endloop
  endfacet
  facet normal 0 0 1
    outer loop
      vertex 7.15211 42.618 4.76
      vertex 5.05902 42.4511 4.76
      vertex 7.25 42 4.76
    endloop
  endfacet
  facet normal 0 0 1
    outer loop
      vertex 6.86803 43.1756 4.76
      vertex -4.74 42.5 4.76
      vertex 7.15211 42.618 4.76
    endloop
  endfacet
  facet normal 0 0 1
    outer loop
      vertex 6.42557 43.618 4.76
      vertex -4.74 42.5 4.76
      vertex 6.86803 43.1756 4.76
    endloop
  endfacet
  facet normal 0 0 1
    outer loop
      vertex 5.86803 43.9021 4.76
      vertex -4.74 42.5 4.76
      vertex 6.42557 43.618 4.76
    endloop
  endfacet
  facet normal 0 0 1
    outer loop
      vertex 5.25 44 4.76
      vertex -4.74 42.5 4.76
      vertex 5.86803 43.9021 4.76
    endloop
  endfacet
  facet normal 0 0 1
    outer loop
      vertex -5.24 44 4.76
      vertex -4.74 42.5 4.76
      vertex 5.25 44 4.76
    endloop
  endfacet
  facet normal 0 0 1
    outer loop
      vertex -5.85803 43.9021 4.76
      vertex -7.24 42 4.76
      vertex -5.24 44 4.76
    endloop
  endfacet
  facet normal 0 0 1
    outer loop
      vertex -6.41557 43.618 4.76
      vertex -7.24 42 4.76
      vertex -5.85803 43.9021 4.76
    endloop
  endfacet
  facet normal 0 0 1
    outer loop
      vertex -6.85803 43.1756 4.76
      vertex -7.24 42 4.76
      vertex -6.41557 43.618 4.76
    endloop
  endfacet
  facet normal 0 0 1
    outer loop
      vertex -7.14211 42.618 4.76
      vertex -7.24 42 4.76
      vertex -6.85803 43.1756 4.76
    endloop
  endfacet
  facet normal 0 0 1
    outer loop
      vertex 2.3057 40.7038 4.75
      vertex 2.71051 39.4215 4.75
      vertex 2.74891 42.5 4.75
    endloop
  endfacet
  facet normal 0 0 1
    outer loop
      vertex 2.74891 42.5 4.75
      vertex 0.391178 42.5 4.75
      vertex 0.880698 42.3749 4.75
    endloop
  endfacet
  facet normal 0 0 1
    outer loop
      vertex 2.71051 39.4215 4.75
      vertex 2.75187 39 4.75
      vertex 2.74891 42.5 4.75
    endloop
  endfacet
  facet normal 0 0 1
    outer loop
      vertex 1.67519 41.7215 4.75
      vertex 2.74891 42.5 4.75
      vertex 0.880698 42.3749 4.75
    endloop
  endfacet
  facet normal 0 0 1
    outer loop
      vertex 1.67519 41.7215 4.75
      vertex 2.3057 40.7038 4.75
      vertex 2.74891 42.5 4.75
    endloop
  endfacet
  facet normal 0 0 1
    outer loop
      vertex 2.75187 39 4.75
      vertex 3.44656 32.0273 4.75
      vertex 2.74891 42.5 4.75
    endloop
  endfacet
  facet normal 0 0 1
    outer loop
      vertex 2.75 39 4.75
      vertex 2.75 36.6178 4.75
      vertex 2.75187 39 4.75
    endloop
  endfacet
  facet normal 0 0 1
    outer loop
      vertex 2.75 36.6178 4.75
      vertex 3.44656 32.0273 4.75
      vertex 2.75187 39 4.75
    endloop
  endfacet
  facet normal 0 0 1
    outer loop
      vertex 2.72176 36.6034 4.75
      vertex 2.14656 36.0282 4.75
      vertex 2.75 36.6178 4.75
    endloop
  endfacet
  facet normal 0 0 1
    outer loop
      vertex 2.14656 36.0282 4.75
      vertex 1.77725 35.3034 4.75
      vertex 2.75 36.6178 4.75
    endloop
  endfacet
  facet normal 0 0 1
    outer loop
      vertex 1.77725 35.3034 4.75
      vertex 1.65 34.5 4.75
      vertex 2.75 36.6178 4.75
    endloop
  endfacet
  facet normal 0 0 1
    outer loop
      vertex 1.65 34.5 4.75
      vertex 1.77725 33.6966 4.75
      vertex 2.75 36.6178 4.75
    endloop
  endfacet
  facet normal 0 0 1
    outer loop
      vertex 1.77725 33.6966 4.75
      vertex 2.14656 32.9718 4.75
      vertex 2.75 36.6178 4.75
    endloop
  endfacet
  facet normal 0 0 1
    outer loop
      vertex 2.14656 32.9718 4.75
      vertex 2.72176 32.3966 4.75
      vertex 2.75 36.6178 4.75
    endloop
  endfacet
  facet normal 0 0 1
    outer loop
      vertex 2.72176 32.3966 4.75
      vertex 3.44656 32.0273 4.75
      vertex 2.75 36.6178 4.75
    endloop
  endfacet
  facet normal 0 0 1
    outer loop
      vertex 3.44656 32.0273 4.75
      vertex 4.25 31.9 4.75
      vertex 2.74891 42.5 4.75
    endloop
  endfacet
  facet normal 0 0 1
    outer loop
      vertex 4.25 31.9 4.75
      vertex 4.13781 39 4.75
      vertex 2.74891 42.5 4.75
    endloop
  endfacet
  facet normal 0 0 1
    outer loop
      vertex 4.25 31.9 4.75
      vertex 4.25 39 4.75
      vertex 4.13781 39 4.75
    endloop
  endfacet
  facet normal 0 0 1
    outer loop
      vertex 4.04199 39.8541 4.75
      vertex 3.43832 41.5267 4.75
      vertex 2.74891 42.5 4.75
    endloop
  endfacet
  facet normal 0 0 1
    outer loop
      vertex 4.13781 39 4.75
      vertex 4.04199 39.8541 4.75
      vertex 2.74891 42.5 4.75
    endloop
  endfacet
  facet normal 0 0 1
    outer loop
      vertex -3.43656 32.0273 4.75
      vertex -2.71176 32.3966 4.75
      vertex -2.13656 32.9718 4.75
    endloop
  endfacet
  facet normal 0 0 1
    outer loop
      vertex -1.64 34.5 4.75
      vertex -3.43656 32.0273 4.75
      vertex -1.76725 33.6966 4.75
    endloop
  endfacet
  facet normal 0 0 1
    outer loop
      vertex -1.76725 33.6966 4.75
      vertex -3.43656 32.0273 4.75
      vertex -2.13656 32.9718 4.75
    endloop
  endfacet
  facet normal 0 0 1
    outer loop
      vertex -1.76725 35.3034 4.75
      vertex -3.43656 32.0273 4.75
      vertex -1.64 34.5 4.75
    endloop
  endfacet
  facet normal 0 0 1
    outer loop
      vertex -2.13656 36.0282 4.75
      vertex -3.43656 32.0273 4.75
      vertex -1.76725 35.3034 4.75
    endloop
  endfacet
  facet normal 0 0 1
    outer loop
      vertex -2.71176 36.6034 4.75
      vertex -3.43656 32.0273 4.75
      vertex -2.13656 36.0282 4.75
    endloop
  endfacet
  facet normal 0 0 1
    outer loop
      vertex -2.74 36.6178 4.75
      vertex -3.43656 32.0273 4.75
      vertex -2.71176 36.6034 4.75
    endloop
  endfacet
  facet normal 0 0 1
    outer loop
      vertex -2.74 39 4.75
      vertex -3.43656 32.0273 4.75
      vertex -2.74 36.6178 4.75
    endloop
  endfacet
  facet normal 0 0 1
    outer loop
      vertex -2.74187 39 4.75
      vertex -3.43656 32.0273 4.75
      vertex -2.74 39 4.75
    endloop
  endfacet
  facet normal 0 0 1
    outer loop
      vertex -2.70051 39.4215 4.75
      vertex -3.43656 32.0273 4.75
      vertex -2.74187 39 4.75
    endloop
  endfacet
  facet normal 0 0 1
    outer loop
      vertex -2.73891 42.5 4.75
      vertex -3.43656 32.0273 4.75
      vertex -2.70051 39.4215 4.75
    endloop
  endfacet
  facet normal 0 0 1
    outer loop
      vertex -2.73891 42.5 4.75
      vertex -2.70051 39.4215 4.75
      vertex -2.2957 40.7038 4.75
    endloop
  endfacet
  facet normal 0 0 1
    outer loop
      vertex -2.73891 42.5 4.75
      vertex -2.2957 40.7038 4.75
      vertex -1.66519 41.7215 4.75
    endloop
  endfacet
  facet normal 0 0 1
    outer loop
      vertex -2.73891 42.5 4.75
      vertex -1.66519 41.7215 4.75
      vertex -0.870698 42.3749 4.75
    endloop
  endfacet
  facet normal 0 0 1
    outer loop
      vertex -2.73891 42.5 4.75
      vertex -0.870698 42.3749 4.75
      vertex -0.381178 42.5 4.75
    endloop
  endfacet
  facet normal 0 0 1
    outer loop
      vertex -3.42832 41.5267 4.75
      vertex -3.43656 32.0273 4.75
      vertex -2.73891 42.5 4.75
    endloop
  endfacet
  facet normal 0 0 1
    outer loop
      vertex -4.03199 39.8541 4.75
      vertex -3.43656 32.0273 4.75
      vertex -3.42832 41.5267 4.75
    endloop
  endfacet
  facet normal 0 0 1
    outer loop
      vertex -4.12781 39 4.75
      vertex -3.43656 32.0273 4.75
      vertex -4.03199 39.8541 4.75
    endloop
  endfacet
  facet normal 0 0 1
    outer loop
      vertex -4.24 39 4.75
      vertex -3.43656 32.0273 4.75
      vertex -4.12781 39 4.75
    endloop
  endfacet
  facet normal 0 0 1
    outer loop
      vertex -4.24 31.9 4.75
      vertex -3.43656 32.0273 4.75
      vertex -4.24 39 4.75
    endloop
  endfacet
  facet normal 0 0 1
    outer loop
      vertex 5.75 31 4.75
      vertex 5.75 30 4.75
      vertex 9.75 30 4.75
    endloop
  endfacet
  facet normal 0 0 1
    outer loop
      vertex 7.25 31 4.75
      vertex 5.75 31 4.75
      vertex 9.75 30 4.75
    endloop
  endfacet
  facet normal 0 0 1
    outer loop
      vertex 9.75 31 4.75
      vertex 7.25 31 4.75
      vertex 9.75 30 4.75
    endloop
  endfacet
  facet normal 0 -1 0
    outer loop
      vertex 7.25 31 4.75
      vertex 7.25 31 4.76
      vertex 5.75 31 4.76
    endloop
  endfacet
  facet normal 0 -1 0
    outer loop
      vertex 5.75 31 4.75
      vertex 7.25 31 4.75
      vertex 5.75 31 4.76
    endloop
  endfacet
  facet normal 0 0 1
    outer loop
      vertex 7.25 36.5 4.75
      vertex 7.25 32.5 4.75
      vertex 8.75 32.5 4.75
    endloop
  endfacet
  facet normal 0 0 1
    outer loop
      vertex 8.75 34.5 4.75
      vertex 7.25 36.5 4.75
      vertex 8.75 32.5 4.75
    endloop
  endfacet
  facet normal 0 0 1
    outer loop
      vertex -7.24 32.5 4.75
      vertex -7.24 36.5 4.75
      vertex -8.74 34.5 4.75
    endloop
  endfacet
  facet normal 0 0 1
    outer loop
      vertex -8.74 32.5 4.75
      vertex -7.24 32.5 4.75
      vertex -8.74 34.5 4.75
    endloop
  endfacet
  facet normal -1 0 0
    outer loop
      vertex -7.75 0 -5.5
      vertex -7.75 0 5.5
      vertex -7.75 3 -5.5
    endloop
  endfacet
  facet normal -1 0 0
    outer loop
      vertex -7.75 3 -5.5
      vertex -7.75 0 5.5
      vertex -7.75 3 5.5
    endloop
  endfacet
  facet normal 0 -1 0
    outer loop
      vertex -7.75 0 5.5
      vertex -7.75 0 -5.5
      vertex 5.25 0 -5.5
    endloop
  endfacet
  facet normal 0 -1 0
    outer loop
      vertex 5.25 0 5.5
      vertex -7.75 0 5.5
      vertex 5.25 0 -5.5
    endloop
  endfacet
  facet normal 0 0 -1
    outer loop
      vertex -7.75 0 -5.5
      vertex -7.75 3 -5.5
      vertex 5.25 0 -5.5
    endloop
  endfacet
  facet normal 0 0 -1
    outer loop
      vertex 5.25 0 -5.5
      vertex -7.75 3 -5.5
      vertex 5.25 3 -5.5
    endloop
  endfacet
  facet normal 0 1 0
    outer loop
      vertex 1.75 3 3
      vertex -7.75 3 5.5
      vertex 5.25 3 5.5
    endloop
  endfacet
  facet normal 0 1 0
    outer loop
      vertex 0.75 3 1
      vertex -0.75 3 3
      vertex 0.75 3 3
    endloop
  endfacet
  facet normal 0 1 0
    outer loop
      vertex -0.75 3 3
      vertex 0.75 3 1
      vertex -0.75 3 1
    endloop
  endfacet
  facet normal 0 1 0
    outer loop
      vertex 0.75 3 3
      vertex -7.75 3 5.5
      vertex 1.75 3 3
    endloop
  endfacet
  facet normal 0 1 0
    outer loop
      vertex 5.25 3 1
      vertex 1.75 3 3
      vertex 5.25 3 5.5
    endloop
  endfacet
  facet normal 0 1 0
    outer loop
      vertex -1.75 3 1
      vertex -7.75 3 5.5
      vertex -1.75 3 3
    endloop
  endfacet
  facet normal 0 1 0
    outer loop
      vertex -5.25 3 1
      vertex -7.75 3 5.5
      vertex -1.75 3 1
    endloop
  endfacet
  facet normal 0 1 0
    outer loop
      vertex -1.75 3 3
      vertex -7.75 3 5.5
      vertex -0.75 3 3
    endloop
  endfacet
  facet normal 0 1 0
    outer loop
      vertex -7.75 3 -5.5
      vertex -7.75 3 5.5
      vertex -5.25 3 1
    endloop
  endfacet
  facet normal 0 1 0
    outer loop
      vertex 0.75 3 -3
      vertex 5.25 3 -5.5
      vertex -0.75 3 -3
    endloop
  endfacet
  facet normal 0 1 0
    outer loop
      vertex -7.75 3 -5.5
      vertex -5.25 3 1
      vertex -5.25 3 -1
    endloop
  endfacet
  facet normal 0 1 0
    outer loop
      vertex 1.75 3 -1
      vertex 5.25 3 -5.5
      vertex 1.75 3 -3
    endloop
  endfacet
  facet normal 0 1 0
    outer loop
      vertex -1.75 3 -3
      vertex -5.25 3 -1
      vertex -1.75 3 -1
    endloop
  endfacet
  facet normal 0 1 0
    outer loop
      vertex -7.75 3 -5.5
      vertex -5.25 3 -1
      vertex -1.75 3 -3
    endloop
  endfacet
  facet normal 0 1 0
    outer loop
      vertex -7.75 3 -5.5
      vertex -1.75 3 -3
      vertex 5.25 3 -5.5
    endloop
  endfacet
  facet normal 0 1 0
    outer loop
      vertex 1.75 3 -3
      vertex 5.25 3 -5.5
      vertex 0.75 3 -3
    endloop
  endfacet
  facet normal 0 1 0
    outer loop
      vertex -1.75 3 -3
      vertex -0.75 3 -3
      vertex 5.25 3 -5.5
    endloop
  endfacet
  facet normal 0 1 0
    outer loop
      vertex 0.75 3 -3
      vertex -0.75 3 -1
      vertex 0.75 3 -1
    endloop
  endfacet
  facet normal 0 1 0
    outer loop
      vertex -0.75 3 -1
      vertex 0.75 3 -3
      vertex -0.75 3 -3
    endloop
  endfacet
  facet normal 0 1 0
    outer loop
      vertex 5.25 3 -1
      vertex 5.25 3 -5.5
      vertex 1.75 3 -1
    endloop
  endfacet
  facet normal 0 1 0
    outer loop
      vertex 1.75 3 3
      vertex 5.25 3 1
      vertex 1.75 3 1
    endloop
  endfacet
  facet normal 0 1 0
    outer loop
      vertex -0.75 3 3
      vertex -7.75 3 5.5
      vertex 0.75 3 3
    endloop
  endfacet
  facet normal 0 0 1
    outer loop
      vertex -7.75 3 5.5
      vertex -7.75 0 5.5
      vertex 5.25 0 5.5
    endloop
  endfacet
  facet normal 0 0 1
    outer loop
      vertex 5.25 3 5.5
      vertex -7.75 3 5.5
      vertex 5.25 0 5.5
    endloop
  endfacet
  facet normal 1 0 0
    outer loop
      vertex 5.25 1.5 -1
      vertex 5.25 0 -5.5
      vertex 5.25 3 -5.5
    endloop
  endfacet
  facet normal 1 0 0
    outer loop
      vertex 5.25 1.5 1
      vertex 5.25 3 1
      vertex 5.25 0 5.5
    endloop
  endfacet
  facet normal 1 0 0
    outer loop
      vertex 5.25 0 5.5
      vertex 5.25 0 -5.5
      vertex 5.25 1.5 -1
    endloop
  endfacet
  facet normal 1 0 0
    outer loop
      vertex 5.25 3 5.5
      vertex 5.25 0 5.5
      vertex 5.25 3 1
    endloop
  endfacet
  facet normal 1 0 0
    outer loop
      vertex 5.25 1.5 -1
      vertex 5.25 1.5 1
      vertex 5.25 0 5.5
    endloop
  endfacet
  facet normal 1 0 0
    outer loop
      vertex 5.25 3 -1
      vertex 5.25 1.5 -1
      vertex 5.25 3 -5.5
    endloop
  endfacet
  facet normal 0 0 -1
    outer loop
      vertex 5.25 1.5 -1
      vertex 5.25 3 -1
      vertex 9.25 1.5 -1
    endloop
  endfacet
  facet normal 0 0 -1
    outer loop
      vertex 9.25 1.5 -1
      vertex 5.25 3 -1
      vertex 12.25 3 -1
    endloop
  endfacet
  facet normal 0 0 -1
    outer loop
      vertex 9.25 1.5 -1
      vertex 12.25 3 -1
      vertex 12.25 1.5 -1
    endloop
  endfacet
  facet normal 0 0 -1
    outer loop
      vertex 9.25 1.5 -1
      vertex 12.25 1.5 -1
      vertex 9.25 0 -1
    endloop
  endfacet
  facet normal 0 1 0
    outer loop
      vertex 5.25 3 -1
      vertex 5.25 3 1
      vertex 12.25 3 -1
    endloop
  endfacet
  facet normal 0 1 0
    outer loop
      vertex 12.25 3 -1
      vertex 5.25 3 1
      vertex 12.25 3 1
    endloop
  endfacet
  facet normal 0.979457 0.201653 0
    outer loop
      vertex 5.25 3 -1
      vertex 1.75 20 -1
      vertex 1.75 20 1
    endloop
  endfacet
  facet normal 0.979457 0.201653 0
    outer loop
      vertex 5.25 3 1
      vertex 5.25 3 -1
      vertex 1.75 20 1
    endloop
  endfacet
  facet normal 0 0 -1
    outer loop
      vertex 5.25 3 -1
      vertex 1.75 3 -1
      vertex 1.75 20 -1
    endloop
  endfacet
  facet normal 1 0 0
    outer loop
      vertex 1.75 3 -1
      vertex 1.75 3 -3
      vertex 1.75 20 -3
    endloop
  endfacet
  facet normal 1 0 0
    outer loop
      vertex 1.75 20 -1
      vertex 1.75 3 -1
      vertex 1.75 20 -3
    endloop
  endfacet
  facet normal 0 0 -1
    outer loop
      vertex -2.75 23.5 -3
      vertex -2.6154 24.8906 -3
      vertex -2.6154 22.1094 -3
    endloop
  endfacet
  facet normal 0 0 -1
    outer loop
      vertex -2.6154 22.1094 -3
      vertex -2.6154 24.8906 -3
      vertex -2.2248 26.145 -3
    endloop
  endfacet
  facet normal 0 0 -1
    outer loop
      vertex -2.6154 22.1094 -3
      vertex -2.2248 26.145 -3
      vertex -1.61641 27.1406 -3
    endloop
  endfacet
  facet normal 0 0 -1
    outer loop
      vertex -2.6154 22.1094 -3
      vertex -1.61641 27.1406 -3
      vertex -1.54514 27.2 -3
    endloop
  endfacet
  facet normal 0 0 -1
    outer loop
      vertex -2.6154 22.1094 -3
      vertex -1.54514 27.2 -3
      vertex 1.54514 27.2 -3
    endloop
  endfacet
  facet normal 0 0 -1
    outer loop
      vertex -2.6154 22.1094 -3
      vertex 1.54514 27.2 -3
      vertex 1.61641 27.1406 -3
    endloop
  endfacet
  facet normal 0 0 -1
    outer loop
      vertex -0.309017 24.4511 -3
      vertex 1.61641 27.1406 -3
      vertex 2.2248 26.145 -3
    endloop
  endfacet
  facet normal 0 0 -1
    outer loop
      vertex 0.809017 24.0878 -3
      vertex 2.2248 26.145 -3
      vertex 2.6154 24.8906 -3
    endloop
  endfacet
  facet normal 0 0 -1
    outer loop
      vertex 1 23.5 -3
      vertex 2.6154 24.8906 -3
      vertex 2.75 23.5 -3
    endloop
  endfacet
  facet normal 0 0 -1
    outer loop
      vertex 0.309017 22.5489 -3
      vertex 2.75 23.5 -3
      vertex 2.6154 22.1094 -3
    endloop
  endfacet
  facet normal 0 0 -1
    outer loop
      vertex -2.6154 22.1094 -3
      vertex 2.6154 22.1094 -3
      vertex 2.2248 20.855 -3
    endloop
  endfacet
  facet normal 0 0 -1
    outer loop
      vertex -2.6154 22.1094 -3
      vertex 2.2248 20.855 -3
      vertex 1.70232 20 -3
    endloop
  endfacet
  facet normal 0 0 -1
    outer loop
      vertex 1.70232 20 -3
      vertex 1.75 20 -3
      vertex 1.75 3 -3
    endloop
  endfacet
  facet normal 0 0 -1
    outer loop
      vertex 1.70232 20 -3
      vertex 1.75 3 -3
      vertex 0.75 19.8 -3
    endloop
  endfacet
  facet normal 0 0 -1
    outer loop
      vertex 1.70232 20 -3
      vertex 0.75 19.8 -3
      vertex -2.6154 22.1094 -3
    endloop
  endfacet
  facet normal 0 0 -1
    outer loop
      vertex 0.75 19.8 -3
      vertex -0.75 19.8 -3
      vertex -2.6154 22.1094 -3
    endloop
  endfacet
  facet normal 0 0 -1
    outer loop
      vertex -1.75 20 -3
      vertex -0.75 3 -3
      vertex -1.75 3 -3
    endloop
  endfacet
  facet normal 0 0 -1
    outer loop
      vertex -2.2248 20.855 -3
      vertex -2.6154 22.1094 -3
      vertex -1.70232 20 -3
    endloop
  endfacet
  facet normal 0 0 -1
    outer loop
      vertex -0.75 19.8 -3
      vertex -1.75 20 -3
      vertex -1.70232 20 -3
    endloop
  endfacet
  facet normal 0 0 -1
    outer loop
      vertex -0.75 19.8 -3
      vertex -1.70232 20 -3
      vertex -2.6154 22.1094 -3
    endloop
  endfacet
  facet normal 0 0 -1
    outer loop
      vertex -0.75 3 -3
      vertex -1.75 20 -3
      vertex -0.75 19.8 -3
    endloop
  endfacet
  facet normal 0 0 -1
    outer loop
      vertex -0.809017 22.9122 -3
      vertex -2.6154 22.1094 -3
      vertex -1 23.5 -3
    endloop
  endfacet
  facet normal 0 0 -1
    outer loop
      vertex -0.309017 22.5489 -3
      vertex -2.6154 22.1094 -3
      vertex -0.809017 22.9122 -3
    endloop
  endfacet
  facet normal 0 0 -1
    outer loop
      vertex 1 23.5 -3
      vertex 2.75 23.5 -3
      vertex 0.809017 22.9122 -3
    endloop
  endfacet
  facet normal 0 0 -1
    outer loop
      vertex -2.6154 22.1094 -3
      vertex -0.309017 22.5489 -3
      vertex 2.6154 22.1094 -3
    endloop
  endfacet
  facet normal 0 0 -1
    outer loop
      vertex -0.309017 22.5489 -3
      vertex 0.309017 22.5489 -3
      vertex 2.6154 22.1094 -3
    endloop
  endfacet
  facet normal 0 0 -1
    outer loop
      vertex 0.809017 22.9122 -3
      vertex 2.75 23.5 -3
      vertex 0.309017 22.5489 -3
    endloop
  endfacet
  facet normal 0 0 -1
    outer loop
      vertex 0.809017 24.0878 -3
      vertex 2.6154 24.8906 -3
      vertex 1 23.5 -3
    endloop
  endfacet
  facet normal 0 0 -1
    outer loop
      vertex 0.309017 24.4511 -3
      vertex 2.2248 26.145 -3
      vertex 0.809017 24.0878 -3
    endloop
  endfacet
  facet normal 0 0 -1
    outer loop
      vertex -0.809017 24.0878 -3
      vertex 1.61641 27.1406 -3
      vertex -0.309017 24.4511 -3
    endloop
  endfacet
  facet normal 0 0 -1
    outer loop
      vertex -2.6154 22.1094 -3
      vertex 1.61641 27.1406 -3
      vertex -0.809017 24.0878 -3
    endloop
  endfacet
  facet normal 0 0 -1
    outer loop
      vertex -2.6154 22.1094 -3
      vertex -0.809017 24.0878 -3
      vertex -1 23.5 -3
    endloop
  endfacet
  facet normal 0 0 -1
    outer loop
      vertex 0.75 19.8 -3
      vertex 1.75 3 -3
      vertex 0.75 3 -3
    endloop
  endfacet
  facet normal 0 0 -1
    outer loop
      vertex -0.309017 24.4511 -3
      vertex 2.2248 26.145 -3
      vertex 0.309017 24.4511 -3
    endloop
  endfacet
  facet normal -1 0 0
    outer loop
      vertex 0.75 19.8 -1
      vertex 0.75 19.8 -3
      vertex 0.75 3 -1
    endloop
  endfacet
  facet normal -1 0 0
    outer loop
      vertex 0.75 3 -1
      vertex 0.75 19.8 -3
      vertex 0.75 3 -3
    endloop
  endfacet
  facet normal 0 0 -1
    outer loop
      vertex -0.75 3 -1
      vertex -0.75 19.8 -1
      vertex 0.75 3 -1
    endloop
  endfacet
  facet normal 0 0 -1
    outer loop
      vertex 0.75 3 -1
      vertex -0.75 19.8 -1
      vertex 0.75 19.8 -1
    endloop
  endfacet
  facet normal 1 0 0
    outer loop
      vertex -0.75 19.8 -3
      vertex -0.75 19.8 -1
      vertex -0.75 3 -1
    endloop
  endfacet
  facet normal 1 0 0
    outer loop
      vertex -0.75 3 -3
      vertex -0.75 19.8 -3
      vertex -0.75 3 -1
    endloop
  endfacet
  facet normal -1 0 0
    outer loop
      vertex -1.75 3 -3
      vertex -1.75 3 -1
      vertex -1.75 20 -3
    endloop
  endfacet
  facet normal -1 0 0
    outer loop
      vertex -1.75 20 -3
      vertex -1.75 3 -1
      vertex -1.75 20 -1
    endloop
  endfacet
  facet normal 0 0 -1
    outer loop
      vertex -1.75 3 -1
      vertex -5.25 3 -1
      vertex -1.75 20 -1
    endloop
  endfacet
  facet normal -0.979457 0.201653 0
    outer loop
      vertex -5.25 3 -1
      vertex -5.25 3 1
      vertex -1.75 20 -1
    endloop
  endfacet
  facet normal -0.979457 0.201653 0
    outer loop
      vertex -1.75 20 -1
      vertex -5.25 3 1
      vertex -1.75 20 1
    endloop
  endfacet
  facet normal 0 0 1
    outer loop
      vertex -1.75 20 1
      vertex -5.25 3 1
      vertex -1.75 3 1
    endloop
  endfacet
  facet normal -1 0 0
    outer loop
      vertex -1.75 3 1
      vertex -1.75 3 3
      vertex -1.75 20 1
    endloop
  endfacet
  facet normal -1 0 0
    outer loop
      vertex -1.75 20 1
      vertex -1.75 3 3
      vertex -1.75 20 3
    endloop
  endfacet
  facet normal 0 0 1
    outer loop
      vertex -2.6154 24.8906 3
      vertex -2.75 23.5 3
      vertex -2.6154 22.1094 3
    endloop
  endfacet
  facet normal 0 0 1
    outer loop
      vertex -1.70232 20 3
      vertex -2.6154 24.8906 3
      vertex -2.2248 20.855 3
    endloop
  endfacet
  facet normal 0 0 1
    outer loop
      vertex -2.2248 20.855 3
      vertex -2.6154 24.8906 3
      vertex -2.6154 22.1094 3
    endloop
  endfacet
  facet normal 0 0 1
    outer loop
      vertex -0.75 19.8 3
      vertex -2.6154 24.8906 3
      vertex -1.70232 20 3
    endloop
  endfacet
  facet normal 0 0 1
    outer loop
      vertex -1.75 3 3
      vertex -1.70232 20 3
      vertex -1.75 20 3
    endloop
  endfacet
  facet normal 0 0 1
    outer loop
      vertex -0.75 3 3
      vertex -1.70232 20 3
      vertex -1.75 3 3
    endloop
  endfacet
  facet normal 0 0 1
    outer loop
      vertex -0.75 19.8 3
      vertex -1.70232 20 3
      vertex -0.75 3 3
    endloop
  endfacet
  facet normal 0 0 1
    outer loop
      vertex 0.75 19.8 3
      vertex -2.6154 24.8906 3
      vertex -0.75 19.8 3
    endloop
  endfacet
  facet normal 0 0 1
    outer loop
      vertex 1.70232 20 3
      vertex -2.6154 24.8906 3
      vertex 0.75 19.8 3
    endloop
  endfacet
  facet normal 0 0 1
    outer loop
      vertex 1.75 3 3
      vertex 0.75 19.8 3
      vertex 0.75 3 3
    endloop
  endfacet
  facet normal 0 0 1
    outer loop
      vertex 1.75 20 3
      vertex 0.75 19.8 3
      vertex 1.75 3 3
    endloop
  endfacet
  facet normal 0 0 1
    outer loop
      vertex 1.75 20 3
      vertex 1.70232 20 3
      vertex 0.75 19.8 3
    endloop
  endfacet
  facet normal 0 0 1
    outer loop
      vertex 1 23.5 3
      vertex 0.809017 22.9122 3
      vertex 2.6154 22.1094 3
    endloop
  endfacet
  facet normal 0 0 1
    outer loop
      vertex 0.309017 24.4511 3
      vertex 0.809017 24.0878 3
      vertex 2.75 23.5 3
    endloop
  endfacet
  facet normal 0 0 1
    outer loop
      vertex 2.2248 26.145 3
      vertex -2.6154 24.8906 3
      vertex 2.6154 24.8906 3
    endloop
  endfacet
  facet normal 0 0 1
    outer loop
      vertex 1.61641 27.1406 3
      vertex -2.6154 24.8906 3
      vertex 2.2248 26.145 3
    endloop
  endfacet
  facet normal 0 0 1
    outer loop
      vertex 1.54514 27.2 3
      vertex -2.6154 24.8906 3
      vertex 1.61641 27.1406 3
    endloop
  endfacet
  facet normal 0 0 1
    outer loop
      vertex -1.54514 27.2 3
      vertex -2.6154 24.8906 3
      vertex 1.54514 27.2 3
    endloop
  endfacet
  facet normal 0 0 1
    outer loop
      vertex -1.61641 27.1406 3
      vertex -2.6154 24.8906 3
      vertex -1.54514 27.2 3
    endloop
  endfacet
  facet normal 0 0 1
    outer loop
      vertex -2.2248 26.145 3
      vertex -2.6154 24.8906 3
      vertex -1.61641 27.1406 3
    endloop
  endfacet
  facet normal 0 0 1
    outer loop
      vertex -1 23.5 3
      vertex -2.6154 24.8906 3
      vertex -0.809017 22.9122 3
    endloop
  endfacet
  facet normal 0 0 1
    outer loop
      vertex 0.309017 22.5489 3
      vertex -0.309017 22.5489 3
      vertex 2.2248 20.855 3
    endloop
  endfacet
  facet normal 0 0 1
    outer loop
      vertex 0.809017 24.0878 3
      vertex 1 23.5 3
      vertex 2.75 23.5 3
    endloop
  endfacet
  facet normal 0 0 1
    outer loop
      vertex 2.6154 24.8906 3
      vertex -2.6154 24.8906 3
      vertex -0.309017 24.4511 3
    endloop
  endfacet
  facet normal 0 0 1
    outer loop
      vertex 2.6154 24.8906 3
      vertex 0.309017 24.4511 3
      vertex 2.75 23.5 3
    endloop
  endfacet
  facet normal 0 0 1
    outer loop
      vertex 2.6154 24.8906 3
      vertex -0.309017 24.4511 3
      vertex 0.309017 24.4511 3
    endloop
  endfacet
  facet normal 0 0 1
    outer loop
      vertex 2.75 23.5 3
      vertex 1 23.5 3
      vertex 2.6154 22.1094 3
    endloop
  endfacet
  facet normal 0 0 1
    outer loop
      vertex 2.6154 22.1094 3
      vertex 0.809017 22.9122 3
      vertex 2.2248 20.855 3
    endloop
  endfacet
  facet normal 0 0 1
    outer loop
      vertex 0.809017 22.9122 3
      vertex 0.309017 22.5489 3
      vertex 2.2248 20.855 3
    endloop
  endfacet
  facet normal 0 0 1
    outer loop
      vertex -0.809017 24.0878 3
      vertex -0.309017 24.4511 3
      vertex -2.6154 24.8906 3
    endloop
  endfacet
  facet normal 0 0 1
    outer loop
      vertex 1.70232 20 3
      vertex -0.809017 22.9122 3
      vertex -2.6154 24.8906 3
    endloop
  endfacet
  facet normal 0 0 1
    outer loop
      vertex 1.70232 20 3
      vertex -0.309017 22.5489 3
      vertex -0.809017 22.9122 3
    endloop
  endfacet
  facet normal 0 0 1
    outer loop
      vertex 1.70232 20 3
      vertex 2.2248 20.855 3
      vertex -0.309017 22.5489 3
    endloop
  endfacet
  facet normal 0 0 1
    outer loop
      vertex -1 23.5 3
      vertex -0.809017 24.0878 3
      vertex -2.6154 24.8906 3
    endloop
  endfacet
  facet normal 1 0 0
    outer loop
      vertex -0.75 19.8 1
      vertex -0.75 19.8 3
      vertex -0.75 3 3
    endloop
  endfacet
  facet normal 1 0 0
    outer loop
      vertex -0.75 3 1
      vertex -0.75 19.8 1
      vertex -0.75 3 3
    endloop
  endfacet
  facet normal 0 0 1
    outer loop
      vertex -0.75 19.8 1
      vertex -0.75 3 1
      vertex 0.75 3 1
    endloop
  endfacet
  facet normal 0 0 1
    outer loop
      vertex 0.75 19.8 1
      vertex -0.75 19.8 1
      vertex 0.75 3 1
    endloop
  endfacet
  facet normal -1 0 0
    outer loop
      vertex 0.75 19.8 3
      vertex 0.75 19.8 1
      vertex 0.75 3 3
    endloop
  endfacet
  facet normal -1 0 0
    outer loop
      vertex 0.75 3 3
      vertex 0.75 19.8 1
      vertex 0.75 3 1
    endloop
  endfacet
  facet normal 1 0 0
    outer loop
      vertex 1.75 3 3
      vertex 1.75 3 1
      vertex 1.75 20 1
    endloop
  endfacet
  facet normal 1 0 0
    outer loop
      vertex 1.75 20 3
      vertex 1.75 3 3
      vertex 1.75 20 1
    endloop
  endfacet
  facet normal 0 0 1
    outer loop
      vertex 1.75 20 1
      vertex 1.75 3 1
      vertex 5.25 3 1
    endloop
  endfacet
  facet normal 0 0 1
    outer loop
      vertex 5.25 3 1
      vertex 5.25 1.5 1
      vertex 9.25 1.5 1
    endloop
  endfacet
  facet normal 0 0 1
    outer loop
      vertex 12.25 1.5 1
      vertex 5.25 3 1
      vertex 9.25 1.5 1
    endloop
  endfacet
  facet normal 0 0 1
    outer loop
      vertex 9.25 0 1
      vertex 12.25 1.5 1
      vertex 9.25 1.5 1
    endloop
  endfacet
  facet normal 0 0 1
    outer loop
      vertex 12.25 1.5 1
      vertex 12.25 3 1
      vertex 5.25 3 1
    endloop
  endfacet
  facet normal 0 -1 0
    outer loop
      vertex 5.25 1.5 1
      vertex 5.25 1.5 -1
      vertex 9.25 1.5 -1
    endloop
  endfacet
  facet normal 0 -1 0
    outer loop
      vertex 9.25 1.5 1
      vertex 5.25 1.5 1
      vertex 9.25 1.5 -1
    endloop
  endfacet
  facet normal -1 0 0
    outer loop
      vertex 9.25 0 -1
      vertex 9.25 0 1
      vertex 9.25 1.5 -1
    endloop
  endfacet
  facet normal -1 0 0
    outer loop
      vertex 9.25 1.5 -1
      vertex 9.25 0 1
      vertex 9.25 1.5 1
    endloop
  endfacet
  facet normal 0.447214 -0.894427 0
    outer loop
      vertex 9.25 0 1
      vertex 9.25 0 -1
      vertex 12.25 1.5 -1
    endloop
  endfacet
  facet normal 0.447214 -0.894427 0
    outer loop
      vertex 12.25 1.5 1
      vertex 9.25 0 1
      vertex 12.25 1.5 -1
    endloop
  endfacet
  facet normal 1 0 0
    outer loop
      vertex 12.25 1.5 1
      vertex 12.25 1.5 -1
      vertex 12.25 3 -1
    endloop
  endfacet
  facet normal 1 0 0
    outer loop
      vertex 12.25 3 1
      vertex 12.25 1.5 1
      vertex 12.25 3 -1
    endloop
  endfacet
  facet normal 0 1 0
    outer loop
      vertex 1.70232 20 -3
      vertex 1.70232 20 3
      vertex 1.75 20 -3
    endloop
  endfacet
  facet normal 0 1 0
    outer loop
      vertex 1.75 20 1
      vertex 1.70232 20 3
      vertex 1.75 20 3
    endloop
  endfacet
  facet normal 0 1 0
    outer loop
      vertex 1.75 20 -1
      vertex 1.70232 20 3
      vertex 1.75 20 1
    endloop
  endfacet
  facet normal 0 1 0
    outer loop
      vertex 1.75 20 -3
      vertex 1.70232 20 3
      vertex 1.75 20 -1
    endloop
  endfacet
  facet normal -0.995348 -0.0963405 0
    outer loop
      vertex -2.75 23.5 -3
      vertex -2.6154 22.1094 -3
      vertex -2.75 23.5 3
    endloop
  endfacet
  facet normal -0.995348 -0.0963405 0
    outer loop
      vertex -2.75 23.5 3
      vertex -2.6154 22.1094 -3
      vertex -2.6154 22.1094 3
    endloop
  endfacet
  facet normal -0.954785 -0.297297 0
    outer loop
      vertex -2.6154 22.1094 -3
      vertex -2.2248 20.855 -3
      vertex -2.6154 22.1094 3
    endloop
  endfacet
  facet normal -0.954785 -0.297297 0
    outer loop
      vertex -2.6154 22.1094 3
      vertex -2.2248 20.855 -3
      vertex -2.2248 20.855 3
    endloop
  endfacet
  facet normal -0.853282 -0.52145 0
    outer loop
      vertex -2.2248 20.855 -3
      vertex -1.70232 20 -3
      vertex -2.2248 20.855 3
    endloop
  endfacet
  facet normal -0.853282 -0.52145 0
    outer loop
      vertex -2.2248 20.855 3
      vertex -1.70232 20 -3
      vertex -1.70232 20 3
    endloop
  endfacet
  facet normal 0 1 0
    outer loop
      vertex -1.75 20 -3
      vertex -1.75 20 -1
      vertex -1.70232 20 -3
    endloop
  endfacet
  facet normal 0 1 0
    outer loop
      vertex -1.70232 20 -3
      vertex -1.75 20 -1
      vertex -1.75 20 1
    endloop
  endfacet
  facet normal 0 1 0
    outer loop
      vertex -1.70232 20 -3
      vertex -1.75 20 1
      vertex -1.75 20 3
    endloop
  endfacet
  facet normal 0 1 0
    outer loop
      vertex -1.70232 20 -3
      vertex -1.75 20 3
      vertex -1.70232 20 3
    endloop
  endfacet
  facet normal 0 -1 0
    outer loop
      vertex -0.75 19.8 -1
      vertex -0.75 19.8 -3
      vertex 0.75 19.8 -3
    endloop
  endfacet
  facet normal 0 -1 0
    outer loop
      vertex 0.75 19.8 -1
      vertex -0.75 19.8 -1
      vertex 0.75 19.8 -3
    endloop
  endfacet
  facet normal 0.853282 -0.52145 0
    outer loop
      vertex 1.70232 20 3
      vertex 1.70232 20 -3
      vertex 2.2248 20.855 -3
    endloop
  endfacet
  facet normal 0.853282 -0.52145 0
    outer loop
      vertex 2.2248 20.855 3
      vertex 1.70232 20 3
      vertex 2.2248 20.855 -3
    endloop
  endfacet
  facet normal 0.954785 -0.297297 0
    outer loop
      vertex 2.2248 20.855 3
      vertex 2.2248 20.855 -3
      vertex 2.6154 22.1094 -3
    endloop
  endfacet
  facet normal 0.954785 -0.297297 0
    outer loop
      vertex 2.6154 22.1094 3
      vertex 2.2248 20.855 3
      vertex 2.6154 22.1094 -3
    endloop
  endfacet
  facet normal 0.995348 -0.0963405 0
    outer loop
      vertex 2.6154 22.1094 3
      vertex 2.6154 22.1094 -3
      vertex 2.75 23.5 -3
    endloop
  endfacet
  facet normal 0.995348 -0.0963405 0
    outer loop
      vertex 2.75 23.5 3
      vertex 2.6154 22.1094 3
      vertex 2.75 23.5 -3
    endloop
  endfacet
  facet normal 0.995348 0.0963405 0
    outer loop
      vertex 2.75 23.5 -3
      vertex 2.6154 24.8906 -3
      vertex 2.6154 24.8906 3
    endloop
  endfacet
  facet normal 0.995348 0.0963405 0
    outer loop
      vertex 2.75 23.5 3
      vertex 2.75 23.5 -3
      vertex 2.6154 24.8906 3
    endloop
  endfacet
  facet normal 0.954785 0.297297 0
    outer loop
      vertex 2.6154 24.8906 -3
      vertex 2.2248 26.145 -3
      vertex 2.2248 26.145 3
    endloop
  endfacet
  facet normal 0.954785 0.297297 0
    outer loop
      vertex 2.6154 24.8906 3
      vertex 2.6154 24.8906 -3
      vertex 2.2248 26.145 3
    endloop
  endfacet
  facet normal 0.853282 0.52145 0
    outer loop
      vertex 2.2248 26.145 -3
      vertex 1.61641 27.1406 -3
      vertex 1.61641 27.1406 3
    endloop
  endfacet
  facet normal 0.853282 0.52145 0
    outer loop
      vertex 2.2248 26.145 3
      vertex 2.2248 26.145 -3
      vertex 1.61641 27.1406 3
    endloop
  endfacet
  facet normal 0.640382 0.768057 0
    outer loop
      vertex 1.54514 27.2 -3
      vertex 1.54514 27.2 3
      vertex 1.61641 27.1406 -3
    endloop
  endfacet
  facet normal 0.640382 0.768057 0
    outer loop
      vertex 1.61641 27.1406 -3
      vertex 1.54514 27.2 3
      vertex 1.61641 27.1406 3
    endloop
  endfacet
  facet normal 0 1 0
    outer loop
      vertex -1.54514 27.2 -3
      vertex -1.54514 27.2 3
      vertex 1.54514 27.2 -3
    endloop
  endfacet
  facet normal 0 1 0
    outer loop
      vertex 1.54514 27.2 -3
      vertex -1.54514 27.2 3
      vertex 1.54514 27.2 3
    endloop
  endfacet
  facet normal -0.640382 0.768057 0
    outer loop
      vertex -1.61641 27.1406 -3
      vertex -1.61641 27.1406 3
      vertex -1.54514 27.2 -3
    endloop
  endfacet
  facet normal -0.640382 0.768057 0
    outer loop
      vertex -1.54514 27.2 -3
      vertex -1.61641 27.1406 3
      vertex -1.54514 27.2 3
    endloop
  endfacet
  facet normal -0.853282 0.52145 0
    outer loop
      vertex -2.2248 26.145 -3
      vertex -2.2248 26.145 3
      vertex -1.61641 27.1406 -3
    endloop
  endfacet
  facet normal -0.853282 0.52145 0
    outer loop
      vertex -1.61641 27.1406 -3
      vertex -2.2248 26.145 3
      vertex -1.61641 27.1406 3
    endloop
  endfacet
  facet normal -0.954785 0.297297 0
    outer loop
      vertex -2.6154 24.8906 -3
      vertex -2.6154 24.8906 3
      vertex -2.2248 26.145 -3
    endloop
  endfacet
  facet normal -0.954785 0.297297 0
    outer loop
      vertex -2.2248 26.145 -3
      vertex -2.6154 24.8906 3
      vertex -2.2248 26.145 3
    endloop
  endfacet
  facet normal -0.995348 0.0963405 0
    outer loop
      vertex -2.75 23.5 -3
      vertex -2.75 23.5 3
      vertex -2.6154 24.8906 -3
    endloop
  endfacet
  facet normal -0.995348 0.0963405 0
    outer loop
      vertex -2.6154 24.8906 -3
      vertex -2.75 23.5 3
      vertex -2.6154 24.8906 3
    endloop
  endfacet
  facet normal 0.951056 -0.309017 0
    outer loop
      vertex -0.809017 24.0878 -3
      vertex -0.809017 24.0878 3
      vertex -1 23.5 3
    endloop
  endfacet
  facet normal 0.951056 -0.309017 0
    outer loop
      vertex -1 23.5 -3
      vertex -0.809017 24.0878 -3
      vertex -1 23.5 3
    endloop
  endfacet
  facet normal 0.951056 0.309017 0
    outer loop
      vertex -1 23.5 3
      vertex -0.809017 22.9122 3
      vertex -0.809017 22.9122 -3
    endloop
  endfacet
  facet normal 0.951056 0.309017 0
    outer loop
      vertex -1 23.5 -3
      vertex -1 23.5 3
      vertex -0.809017 22.9122 -3
    endloop
  endfacet
  facet normal 0.587786 -0.809016 0
    outer loop
      vertex -0.309017 24.4511 -3
      vertex -0.309017 24.4511 3
      vertex -0.809017 24.0878 3
    endloop
  endfacet
  facet normal 0.587786 -0.809016 0
    outer loop
      vertex -0.809017 24.0878 -3
      vertex -0.309017 24.4511 -3
      vertex -0.809017 24.0878 3
    endloop
  endfacet
  facet normal 0 -1 0
    outer loop
      vertex 0.309017 24.4511 -3
      vertex 0.309017 24.4511 3
      vertex -0.309017 24.4511 3
    endloop
  endfacet
  facet normal 0 -1 0
    outer loop
      vertex -0.309017 24.4511 -3
      vertex 0.309017 24.4511 -3
      vertex -0.309017 24.4511 3
    endloop
  endfacet
  facet normal -0.587786 -0.809016 0
    outer loop
      vertex 0.809017 24.0878 -3
      vertex 0.809017 24.0878 3
      vertex 0.309017 24.4511 3
    endloop
  endfacet
  facet normal -0.587786 -0.809016 0
    outer loop
      vertex 0.309017 24.4511 -3
      vertex 0.809017 24.0878 -3
      vertex 0.309017 24.4511 3
    endloop
  endfacet
  facet normal -0.951056 -0.309017 0
    outer loop
      vertex 1 23.5 3
      vertex 0.809017 24.0878 3
      vertex 1 23.5 -3
    endloop
  endfacet
  facet normal -0.951056 -0.309017 0
    outer loop
      vertex 1 23.5 -3
      vertex 0.809017 24.0878 3
      vertex 0.809017 24.0878 -3
    endloop
  endfacet
  facet normal -0.951056 0.309017 0
    outer loop
      vertex 1 23.5 3
      vertex 1 23.5 -3
      vertex 0.809017 22.9122 3
    endloop
  endfacet
  facet normal -0.951056 0.309017 0
    outer loop
      vertex 0.809017 22.9122 3
      vertex 1 23.5 -3
      vertex 0.809017 22.9122 -3
    endloop
  endfacet
  facet normal -0.587786 0.809016 0
    outer loop
      vertex 0.809017 22.9122 3
      vertex 0.809017 22.9122 -3
      vertex 0.309017 22.5489 3
    endloop
  endfacet
  facet normal -0.587786 0.809016 0
    outer loop
      vertex 0.309017 22.5489 3
      vertex 0.809017 22.9122 -3
      vertex 0.309017 22.5489 -3
    endloop
  endfacet
  facet normal 0 1 0
    outer loop
      vertex 0.309017 22.5489 3
      vertex 0.309017 22.5489 -3
      vertex -0.309017 22.5489 3
    endloop
  endfacet
  facet normal 0 1 0
    outer loop
      vertex -0.309017 22.5489 3
      vertex 0.309017 22.5489 -3
      vertex -0.309017 22.5489 -3
    endloop
  endfacet
  facet normal 0.587786 0.809016 0
    outer loop
      vertex -0.309017 22.5489 3
      vertex -0.309017 22.5489 -3
      vertex -0.809017 22.9122 3
    endloop
  endfacet
  facet normal 0.587786 0.809016 0
    outer loop
      vertex -0.809017 22.9122 3
      vertex -0.309017 22.5489 -3
      vertex -0.809017 22.9122 -3
    endloop
  endfacet
  facet normal 0 -1 0
    outer loop
      vertex -0.75 19.8 3
      vertex -0.75 19.8 1
      vertex 0.75 19.8 1
    endloop
  endfacet
  facet normal 0 -1 0
    outer loop
      vertex 0.75 19.8 3
      vertex -0.75 19.8 3
      vertex 0.75 19.8 1
    endloop
  endfacet
endsolid OpenSCAD_Model
